<svg xmlns="http://www.w3.org/2000/svg" viewBox="0 0 800 800">
<rect width="800" height="800" fill="#0a0e1a"/>
<circle cx="556.0202434235306" cy="296.72515433120634" r="83.27166219535086" fill="none" stroke="#ff4d61" stroke-width="1.8" opacity="0.56"/><circle cx="667.1930930732731" cy="304.53217386880584" r="102.7921934265679" fill="#ff4d61" opacity="0.59"/><circle cx="316.9749711406022" cy="677.5034832418806" r="86.58915085552233" fill="#0cbb76" opacity="0.39"/><circle cx="290.07053439691634" cy="366.4544607550045" r="63.65525103772362" fill="#ffbf00" opacity="0.49"/><circle cx="347.6527378724975" cy="414.8916303273548" r="94.56721776824253" fill="#1f73ff" opacity="0.36"/><circle cx="262.8302725987537" cy="505.4685982697318" r="102.83404732229305" fill="none" stroke="#a855f7" stroke-width="2.0" opacity="0.40"/><circle cx="269.7806824936322" cy="730.2424753692915" r="23.218853279788206" fill="#1f73ff" opacity="0.65"/><circle cx="650.9867306485881" cy="496.0149940569731" r="104.73853597141994" fill="none" stroke="#a855f7" stroke-width="1.8" opacity="0.38"/><circle cx="346.64766412594724" cy="480.04880463401156" r="114.30683752422067" fill="#ff8c00" opacity="0.36"/><circle cx="84.04194076203865" cy="706.9708521622566" r="13.834220792467212" fill="none" stroke="#1f73ff" stroke-width="1.2" opacity="0.61"/><circle cx="246.18391484342902" cy="329.5143050825522" r="48.89286194544385" fill="#0cbb76" opacity="0.83"/><circle cx="159.70951287025594" cy="424.3223881802913" r="87.75180204024961" fill="#a855f7" opacity="0.57"/><circle cx="615.3479217887647" cy="153.78263673205132" r="50.85609405014648" fill="#a855f7" opacity="0.48"/><circle cx="465.2049845769016" cy="213.56326640367953" r="43.819863238598174" fill="#ff4d61" opacity="0.42"/><circle cx="418.9323978112531" cy="220.07708177073633" r="68.06748002693428" fill="#0cbb76" opacity="0.68"/><circle cx="614.0227882767177" cy="527.6471854769006" r="68.61334441991889" fill="#ff4d61" opacity="0.74"/><circle cx="301.9899173716966" cy="530.5380649385635" r="101.81241112040237" fill="none" stroke="#a855f7" stroke-width="3.9" opacity="0.71"/><circle cx="269.8538132346172" cy="101.74854538190645" r="10.836876510681758" fill="none" stroke="#0cbb76" stroke-width="3.7" opacity="0.37"/><circle cx="738.515427580161" cy="148.90405182036972" r="95.72425728881912" fill="none" stroke="#ff8c00" stroke-width="3.2" opacity="0.81"/><circle cx="600.6734657250166" cy="748.835486559826" r="71.78805704058246" fill="#a855f7" opacity="0.89"/><circle cx="202.287220244468" cy="605.0084927443277" r="16.856260812324564" fill="#ff4d61" opacity="0.58"/><circle cx="291.6744185703279" cy="576.6470674046618" r="49.49720547467803" fill="none" stroke="#ff8c00" stroke-width="1.3" opacity="0.66"/><circle cx="375.7937941156535" cy="660.2881983626627" r="74.54446741813038" fill="#1f73ff" opacity="0.77"/><circle cx="144.45959608681392" cy="700.756981369353" r="65.52748842755051" fill="#ff4d61" opacity="0.84"/><circle cx="319.23203345455846" cy="142.5635030530394" r="4.20809687470961" fill="#a855f7" opacity="0.8"/><circle cx="110.25678183413828" cy="77.21915692718584" r="4.820325641877323" fill="#1f73ff" opacity="0.8"/>
<text x="400" y="780" text-anchor="middle" fill="#334" font-family="monospace" font-size="10">organism:f09a4cf73a88 | circles</text>
</svg>