<svg xmlns="http://www.w3.org/2000/svg" viewBox="0 0 800 800">
<rect width="800" height="800" fill="#0a0e1a"/>
<polyline points="523,690 522,732 556,724 534,740 560,693 492,684" fill="none" stroke="#0cbb76" stroke-width="2.2" stroke-linecap="round" stroke-linejoin="round" opacity="0.53"/><polyline points="290,19 229,45 256,24 231,78 160,45 167,64" fill="none" stroke="#ff8c00" stroke-width="5.8" stroke-linecap="round" stroke-linejoin="round" opacity="0.80"/><polyline points="585,360 545,282 558,354 560,430 566,448" fill="none" stroke="#ff4d61" stroke-width="4.5" stroke-linecap="round" stroke-linejoin="round" opacity="0.31"/><polyline points="333,39 280,46 318,110 329,188 336,251 285,217" fill="none" stroke="#0cbb76" stroke-width="5.2" stroke-linecap="round" stroke-linejoin="round" opacity="0.88"/><polyline points="793,96 720,166 713,159 693,128 657,164 717,100 757,21 797,14" fill="none" stroke="#0cbb76" stroke-width="3.7" stroke-linecap="round" stroke-linejoin="round" opacity="0.90"/><polyline points="276,464 339,502 338,424 300,485 256,516 199,453 200,524" fill="none" stroke="#ffbf00" stroke-width="5.0" stroke-linecap="round" stroke-linejoin="round" opacity="0.38"/><polyline points="293,179 312,100 241,171 263,244 290,221" fill="none" stroke="#ff4d61" stroke-width="3.8" stroke-linecap="round" stroke-linejoin="round" opacity="0.58"/><polyline points="641,450 618,470 580,454 508,526 568,525 615,554 597,596 551,518" fill="none" stroke="#1f73ff" stroke-width="3.5" stroke-linecap="round" stroke-linejoin="round" opacity="0.72"/><polyline points="133,554 121,570 86,630 147,597" fill="none" stroke="#a855f7" stroke-width="4.1" stroke-linecap="round" stroke-linejoin="round" opacity="0.46"/><polyline points="206,312 240,307 302,232 365,168 414,137" fill="none" stroke="#0cbb76" stroke-width="4.8" stroke-linecap="round" stroke-linejoin="round" opacity="0.52"/><polyline points="627,488 648,548 719,499 709,531 650,476 684,472" fill="none" stroke="#ff4d61" stroke-width="2.0" stroke-linecap="round" stroke-linejoin="round" opacity="0.75"/><polyline points="391,515 375,470 314,449 296,493 217,450 192,372 216,322" fill="none" stroke="#ff8c00" stroke-width="3.7" stroke-linecap="round" stroke-linejoin="round" opacity="0.54"/><polyline points="308,426 252,477 309,548 332,547" fill="none" stroke="#1f73ff" stroke-width="2.7" stroke-linecap="round" stroke-linejoin="round" opacity="0.71"/><polyline points="763,460 693,532 767,597 718,517 700,536 747,580" fill="none" stroke="#1f73ff" stroke-width="4.1" stroke-linecap="round" stroke-linejoin="round" opacity="0.75"/><polyline points="405,126 375,157 341,189 351,121 297,69 360,55 411,95" fill="none" stroke="#ffbf00" stroke-width="4.7" stroke-linecap="round" stroke-linejoin="round" opacity="0.40"/><polyline points="699,223 743,170 732,135 700,148 648,157" fill="none" stroke="#ff8c00" stroke-width="4.4" stroke-linecap="round" stroke-linejoin="round" opacity="0.52"/><polyline points="494,621 456,559 487,523 478,532 460,494" fill="none" stroke="#0cbb76" stroke-width="2.2" stroke-linecap="round" stroke-linejoin="round" opacity="0.65"/><polyline points="395,334 386,412 350,356 376,429 436,482 371,406" fill="none" stroke="#ff4d61" stroke-width="4.1" stroke-linecap="round" stroke-linejoin="round" opacity="0.85"/><polyline points="168,293 199,305 230,338 302,404 317,366 359,395" fill="none" stroke="#ff4d61" stroke-width="3.1" stroke-linecap="round" stroke-linejoin="round" opacity="0.77"/><polyline points="263,692 192,755 189,699 177,677 188,620 213,659" fill="none" stroke="#ffbf00" stroke-width="3.2" stroke-linecap="round" stroke-linejoin="round" opacity="0.63"/><circle cx="500.89244654551334" cy="74.99667731123054" r="4.924346947332946" fill="#0cbb76" opacity="0.8"/><circle cx="316.6938796876602" cy="331.0561480856542" r="3.222011213328369" fill="#ffbf00" opacity="0.8"/><circle cx="758.4378350870228" cy="785.6576491099394" r="2.0017166319743716" fill="#0cbb76" opacity="0.8"/><circle cx="639.3632024016966" cy="109.10514415825148" r="5.938325439555898" fill="#ffbf00" opacity="0.8"/>
<text x="400" y="780" text-anchor="middle" fill="#334" font-family="monospace" font-size="10">organism:f5ea5d61933f | squiggles</text>
</svg>