<svg xmlns="http://www.w3.org/2000/svg" viewBox="0 0 800 800">
<rect width="800" height="800" fill="#0a0e1a"/>
<polygon points="497,70 504,99 534,91 512,113 534,134 504,126 497,156 489,126 459,134 481,113 459,91 489,99" fill="#480ca8" opacity="0.52"/><polygon points="587,511 601,552 642,565 601,579 587,620 574,579 533,565 574,552" fill="#560bad" opacity="0.66"/><polygon points="684,674 689,684 700,681 694,692 704,699 692,701 693,713 684,705 675,713 676,701 664,699 673,692 668,681 679,684" fill="#b5179e" opacity="0.56"/><polygon points="639,53 653,109 708,93 666,133 708,173 653,156 639,213 626,156 570,173 612,133 570,93 626,109" fill="#480ca8" opacity="0.45"/><polygon points="332,12 339,49 373,31 348,60 383,76 345,75 354,112 332,81 309,112 318,75 280,76 315,60 290,31 324,49" fill="#480ca8" opacity="0.31"/><polygon points="623,299 630,316 646,322 630,329 623,345 617,329 600,322 617,316" fill="#7209b7" opacity="0.81"/><polygon points="100,654 110,679 135,689 110,699 100,725 90,699 64,689 90,679" fill="#560bad" opacity="0.69"/><polygon points="384,73 403,105 440,113 415,142 419,179 384,164 349,179 353,142 328,113 365,105" fill="#7209b7" opacity="0.44"/><polygon points="74,675 87,727 138,712 100,750 138,787 87,773 74,824 61,773 9,787 47,750 9,712 61,727" fill="#560bad" opacity="0.48"/><polygon points="715,158 725,179 749,178 736,197 749,217 725,216 715,237 704,216 681,217 693,197 681,178 704,179" fill="#480ca8" opacity="0.62"/><polygon points="354,122 360,146 382,136 367,155 389,166 364,166 370,190 354,171 338,190 344,166 319,166 341,155 326,136 348,146" fill="#f72585" opacity="0.51"/><polygon points="285,147 297,169 322,169 310,191 322,213 297,212 285,234 272,212 247,213 260,191 247,169 272,169" fill="#480ca8" opacity="0.40"/><polygon points="320,584 336,612 363,627 336,643 320,670 304,643 277,627 304,612" fill="#3f37c9" opacity="0.53"/><polygon points="477,542 486,573 517,582 486,591 477,622 468,591 437,582 468,573" fill="#f72585" opacity="0.68"/><polygon points="572,316 593,363 645,369 607,404 617,455 572,430 526,455 536,404 498,369 550,363" fill="#560bad" opacity="0.80"/><polygon points="627,471 635,489 655,492 640,505 644,525 627,515 609,525 613,505 599,492 618,489" fill="#3f37c9" opacity="0.78"/><polygon points="599,160 611,201 652,213 611,226 599,266 586,226 546,213 586,201" fill="#560bad" opacity="0.56"/><circle cx="216.59364578246107" cy="194.19432545174732" r="3.760682604770536" fill="#7209b7" opacity="0.8"/><circle cx="785.4333037852494" cy="745.4683639562394" r="3.9435784401860743" fill="#b5179e" opacity="0.8"/>
<text x="400" y="780" text-anchor="middle" fill="#334" font-family="monospace" font-size="10">organism:4d057984531a | stars</text>
</svg>