<svg xmlns="http://www.w3.org/2000/svg" viewBox="0 0 800 800">
<rect width="800" height="800" fill="#0a0e1a"/>
<polygon points="278,351 291,376 316,390 291,403 278,428 265,403 239,390 265,376" fill="#ffd166" opacity="0.60"/><polygon points="539,96 549,136 588,124 558,152 588,180 549,168 539,208 530,168 491,180 521,152 491,124 530,136" fill="#ffd166" opacity="0.90"/><polygon points="467,657 478,687 508,676 491,703 518,719 486,723 490,754 467,732 445,754 449,723 417,719 444,703 427,676 457,687" fill="#ffd166" opacity="0.85"/><polygon points="323,184 331,199 348,196 341,211 354,223 338,227 337,244 323,234 310,244 309,227 293,223 305,211 299,196 315,199" fill="#073b4c" opacity="0.38"/><polygon points="331,232 343,273 383,258 360,293 396,315 354,318 360,361 331,330 301,361 307,318 265,315 301,293 278,258 318,273" fill="#ffd166" opacity="0.86"/><polygon points="358,553 368,581 397,592 368,602 358,630 347,602 319,592 347,581" fill="#ef476f" opacity="0.82"/><polygon points="733,596 741,616 763,617 745,631 751,652 733,640 715,652 721,631 704,617 726,616" fill="#06d6a0" opacity="0.50"/><polygon points="669,184 681,213 712,215 688,234 696,265 669,248 643,265 651,234 627,215 658,213" fill="#06d6a0" opacity="0.39"/><polygon points="237,108 244,122 260,124 249,135 251,151 237,144 223,151 225,135 215,124 230,122" fill="#ffd166" opacity="0.44"/><polygon points="69,315 74,332 91,331 76,340 83,356 69,345 56,356 62,340 48,331 65,332" fill="#ef476f" opacity="0.56"/><circle cx="397.73579265110254" cy="180.66644582940913" r="3.943334212126527" fill="#ef476f" opacity="0.8"/><circle cx="710.6305957733179" cy="279.01843574869775" r="5.211174234139167" fill="#ffd166" opacity="0.8"/><circle cx="621.4273013264557" cy="368.5861154520135" r="5.247050041145128" fill="#118ab2" opacity="0.8"/><circle cx="170.97623699511377" cy="525.2221919570316" r="3.8712753828647957" fill="#118ab2" opacity="0.8"/>
<text x="400" y="780" text-anchor="middle" fill="#334" font-family="monospace" font-size="10">organism:8d044137bc93 | stars</text>
</svg>