<svg xmlns="http://www.w3.org/2000/svg" viewBox="0 0 800 800">
<rect width="800" height="800" fill="#0a0e1a"/>
<polygon points="79.18963981804717,195.52126215492441 40.129354896612604,262.866580984984 118.24992473948174,262.866580984984" fill="#c77dff" opacity="0.62" transform="rotate(226 79.18963981804717 240.41814137496414)"/><polygon points="540.2561210063354,624.559835102924 510.08584274937857,676.5775562356082 570.4263992632923,676.5775562356082" fill="#5a189a" opacity="0.72" transform="rotate(19 540.2561210063354 659.2383158580468)"/><polygon points="329.4826092561483,3.9806592831706524 262.7885732958669,118.9703764560696 396.1766452164297,118.9703764560696" fill="#e0aaff" opacity="0.64" transform="rotate(263 329.4826092561483 80.64047073176995)"/><polygon points="138.60058087623685,-6.879246166190754 54.89982095107851,137.43240887718568 222.30134080139518,137.43240887718568" fill="#c77dff" opacity="0.34" transform="rotate(126 138.60058087623685 89.32852386272687)"/><polygon points="52.390779132142896,375.29815171448655 8.46887915277695,451.0255654720141 96.31267911150884,451.0255654720141" fill="#9d4edd" opacity="0.33" transform="rotate(145 52.390779132142896 425.7830942195049)"/><polygon points="488.01567895041217,364.8117068396639 424.2519599643679,474.74915336732636 551.7793979364565,474.74915336732636" fill="#7b2cbf" opacity="0.82" transform="rotate(352 488.01567895041217 438.10333785810553)"/><polygon points="416.34265021299143,249.6632705952527 384.6117653238108,304.37169281797793 448.07353510217206,304.37169281797793" fill="#e0aaff" opacity="0.59" transform="rotate(171 416.34265021299143 286.1355520770695)"/><polygon points="520.9735672061438,460.5444571184454 478.8654305005291,533.144692817781 563.0817039117585,533.144692817781" fill="#7b2cbf" opacity="0.55" transform="rotate(172 520.9735672061438 508.9446142513358)"/><polygon points="635.8792959540428,477.65999473816316 582.8445389310068,569.0992309847769 688.9140529770789,569.0992309847769" fill="#7b2cbf" opacity="0.60" transform="rotate(253 635.8792959540428 538.619485569239)"/><polygon points="300.543041330424,548.6354667268208 235.87753643839773,660.1277165406592 365.20854622245025,660.1277165406592" fill="#7b2cbf" opacity="0.63" transform="rotate(342 300.543041330424 622.9636332693798)"/><polygon points="187.2574672148584,64.5212433478785 122.02717466922738,176.98726497827678 252.4877597604894,176.98726497827678" fill="#9d4edd" opacity="0.61" transform="rotate(242 187.2574672148584 139.49859110147736)"/><polygon points="142.05148731864287,639.212787137374 102.33060119448552,707.697073558335 181.77237344280022,707.697073558335" fill="#7b2cbf" opacity="0.59" transform="rotate(155 142.05148731864287 684.8689780846813)"/><polygon points="705.9082883241098,147.0864356848578 632.7320602968609,273.25234607666613 779.0845163513586,273.25234607666613" fill="#5a189a" opacity="0.31" transform="rotate(171 705.9082883241098 231.19704261273003)"/><polygon points="172.1401325387361,88.64201284394349 141.32447670213148,141.77245394153766 202.95578837534075,141.77245394153766" fill="#7b2cbf" opacity="0.55" transform="rotate(103 172.1401325387361 124.06230690900628)"/><polygon points="660.1410796206566,594.1039138391932 606.3645105366347,686.8221363978515 713.9176487046784,686.8221363978515" fill="#c77dff" opacity="0.84" transform="rotate(291 660.1410796206566 655.916062211632)"/><circle cx="489.4793035731275" cy="487.2481486630243" r="3.4179713084118486" fill="#e0aaff" opacity="0.8"/><circle cx="52.40242911271187" cy="769.6820553320681" r="2.0486955150642165" fill="#7b2cbf" opacity="0.8"/><circle cx="520.4206303816065" cy="324.58717170635464" r="5.157754442292211" fill="#5a189a" opacity="0.8"/><circle cx="375.0231861291394" cy="775.4281314903984" r="3.362326068941376" fill="#7b2cbf" opacity="0.8"/>
<text x="400" y="780" text-anchor="middle" fill="#334" font-family="monospace" font-size="10">organism:5f490b095ebd | triangles</text>
</svg>