<svg xmlns="http://www.w3.org/2000/svg" viewBox="0 0 800 800">
<rect width="800" height="800" fill="#0a0e1a"/>
<polyline points="666,344 694,285 764,267 731,290" fill="none" stroke="#ffbf00" stroke-width="3.1" stroke-linecap="round" stroke-linejoin="round" opacity="0.78"/><polyline points="697,626 620,575 670,546 641,593 672,659 749,621 772,668" fill="none" stroke="#1f73ff" stroke-width="5.7" stroke-linecap="round" stroke-linejoin="round" opacity="0.32"/><polyline points="505,181 467,204 422,279 400,243 474,312" fill="none" stroke="#ffbf00" stroke-width="4.7" stroke-linecap="round" stroke-linejoin="round" opacity="0.83"/><polyline points="133,163 63,221 93,258 165,297 118,369" fill="none" stroke="#ff4d61" stroke-width="3.3" stroke-linecap="round" stroke-linejoin="round" opacity="0.49"/><polyline points="122,783 174,826 210,904 254,903" fill="none" stroke="#ff8c00" stroke-width="4.9" stroke-linecap="round" stroke-linejoin="round" opacity="0.49"/><polyline points="63,174 -8,250 -83,289 -83,288 -157,227 -79,259 -57,247" fill="none" stroke="#ff8c00" stroke-width="5.5" stroke-linecap="round" stroke-linejoin="round" opacity="0.62"/><polyline points="659,647 697,714 738,744 660,762 739,748" fill="none" stroke="#0cbb76" stroke-width="4.9" stroke-linecap="round" stroke-linejoin="round" opacity="0.55"/><polyline points="370,629 363,621 312,580 282,557 357,478" fill="none" stroke="#ffbf00" stroke-width="3.6" stroke-linecap="round" stroke-linejoin="round" opacity="0.82"/><polyline points="103,153 116,165 192,162 211,115 236,118 213,45" fill="none" stroke="#a855f7" stroke-width="5.7" stroke-linecap="round" stroke-linejoin="round" opacity="0.39"/><circle cx="554.9805528672177" cy="114.9340574504067" r="2.392216943708138" fill="#ffbf00" opacity="0.8"/><circle cx="791.669480706862" cy="769.3049376955046" r="3.2251783703810215" fill="#a855f7" opacity="0.8"/><circle cx="734.827819329901" cy="780.4826064100255" r="4.84125263839925" fill="#ffbf00" opacity="0.8"/>
<text x="400" y="780" text-anchor="middle" fill="#334" font-family="monospace" font-size="10">organism:cba25226e3d1 | squiggles</text>
</svg>