<svg xmlns="http://www.w3.org/2000/svg" viewBox="0 0 800 800">
<rect width="800" height="800" fill="#0a0e1a"/>
<path d="M851,361 L777,398 L740,423 L687,414 L663,361 L698,319 L740,257 L817,283 L851,361Z" fill="#b5179e" opacity="0.78"/><path d="M412,185 L391,229 L339,213 L338,156 L387,155 L412,185Z" fill="#7209b7" opacity="0.67"/><path d="M547,536 L517,626 L426,581 L452,510 L509,471 L574,536Z" fill="#3f37c9" opacity="0.52"/><path d="M364,92 L306,150 L231,132 L246,62 L306,31 L360,92Z" fill="#560bad" opacity="0.82"/><path d="M496,683 L474,779 L382,749 L367,683 L389,631 L449,631 L481,683Z" fill="#3f37c9" opacity="0.81"/><path d="M756,615 L691,654 L649,667 L604,642 L585,579 L640,525 L717,545 L717,615Z" fill="#b5179e" opacity="0.69"/><path d="M653,658 L626,693 L587,710 L566,674 L556,637 L590,620 L631,618 L648,658Z" fill="#3f37c9" opacity="0.40"/><path d="M493,542 L448,616 L380,573 L381,510 L445,477 L473,542Z" fill="#b5179e" opacity="0.79"/><path d="M313,68 L210,139 L136,105 L115,16 L223,-45 L270,68Z" fill="#7209b7" opacity="0.74"/><path d="M518,694 L494,715 L463,729 L461,694 L468,668 L502,661 L505,694Z" fill="#b5179e" opacity="0.47"/><path d="M681,97 L617,149 L556,180 L501,133 L513,66 L560,30 L641,14 L688,97Z" fill="#f72585" opacity="0.75"/><path d="M160,454 L123,478 L97,488 L57,477 L74,440 L96,419 L140,410 L147,454Z" fill="#560bad" opacity="0.84"/><path d="M730,397 L697,433 L661,442 L623,434 L624,397 L636,372 L661,347 L695,363 L702,397Z" fill="#560bad" opacity="0.80"/><path d="M577,701 L544,723 L518,739 L503,713 L488,683 L517,660 L553,668 L560,701Z" fill="#f72585" opacity="0.45"/><path d="M178,142 L121,194 L50,181 L14,77 L131,58 L178,142Z" fill="#7209b7" opacity="0.37"/><path d="M165,175 L132,205 L99,202 L78,175 L86,125 L138,135 L159,175Z" fill="#f72585" opacity="0.55"/><path d="M426,485 L377,536 L315,518 L297,439 L376,435 L400,485Z" fill="#f72585" opacity="0.33"/><path d="M413,355 L370,390 L334,397 L278,411 L269,355 L289,309 L334,284 L376,314 L394,355Z" fill="#3f37c9" opacity="0.81"/><path d="M644,379 L617,435 L561,444 L498,441 L517,379 L523,341 L561,307 L613,327 L606,379Z" fill="#560bad" opacity="0.71"/><path d="M573,201 L516,250 L466,295 L425,243 L383,201 L429,164 L466,140 L535,133 L522,201Z" fill="#560bad" opacity="0.76"/><path d="M242,68 L222,171 L132,109 L136,29 L210,1 L253,68Z" fill="#3f37c9" opacity="0.69"/><path d="M218,745 L188,851 L50,820 L86,696 L174,683 L255,745Z" fill="#480ca8" opacity="0.33"/><circle cx="345.4269180951517" cy="416.4369529647978" r="4.686406731880172" fill="#f72585" opacity="0.8"/><circle cx="353.0058705642129" cy="334.7182882346191" r="5.611327642500868" fill="#480ca8" opacity="0.8"/><circle cx="465.6567812877294" cy="440.823762722703" r="5.7803783004885965" fill="#b5179e" opacity="0.8"/><circle cx="430.5157910074996" cy="105.1980926964008" r="4.226149629942514" fill="#7209b7" opacity="0.8"/><circle cx="500.93545490358855" cy="609.3979751467066" r="2.655587812364252" fill="#560bad" opacity="0.8"/>
<text x="400" y="780" text-anchor="middle" fill="#334" font-family="monospace" font-size="10">organism:92cf7baa9713 | blobs</text>
</svg>