<svg xmlns="http://www.w3.org/2000/svg" viewBox="0 0 800 800">
<rect width="800" height="800" fill="#0a0e1a"/>
<polyline points="661,94 736,108 782,179 767,149 759,203 702,229 707,240 629,315" fill="none" stroke="#7b2cbf" stroke-width="3.3" stroke-linecap="round" stroke-linejoin="round" opacity="0.81"/><polyline points="601,400 644,418 673,370 652,443 627,415" fill="none" stroke="#e0aaff" stroke-width="3.5" stroke-linecap="round" stroke-linejoin="round" opacity="0.43"/><polyline points="497,766 514,721 454,717 461,712 396,787 462,779 384,734" fill="none" stroke="#7b2cbf" stroke-width="2.8" stroke-linecap="round" stroke-linejoin="round" opacity="0.79"/><polyline points="522,616 490,579 518,594 502,606" fill="none" stroke="#e0aaff" stroke-width="3.3" stroke-linecap="round" stroke-linejoin="round" opacity="0.78"/><polyline points="239,117 285,193 208,146 207,199 215,161" fill="none" stroke="#9d4edd" stroke-width="3.5" stroke-linecap="round" stroke-linejoin="round" opacity="0.47"/><polyline points="113,184 85,117 64,75 -4,127 15,51" fill="none" stroke="#9d4edd" stroke-width="4.4" stroke-linecap="round" stroke-linejoin="round" opacity="0.89"/><polyline points="292,574 298,613 307,584 387,580 411,527 411,566 366,509" fill="none" stroke="#5a189a" stroke-width="3.8" stroke-linecap="round" stroke-linejoin="round" opacity="0.36"/><polyline points="109,64 89,23 60,50 -2,-24 59,-98" fill="none" stroke="#e0aaff" stroke-width="3.6" stroke-linecap="round" stroke-linejoin="round" opacity="0.59"/><polyline points="639,507 567,531 557,595 534,590" fill="none" stroke="#e0aaff" stroke-width="4.1" stroke-linecap="round" stroke-linejoin="round" opacity="0.60"/><polyline points="784,415 759,396 826,343 781,296" fill="none" stroke="#e0aaff" stroke-width="4.7" stroke-linecap="round" stroke-linejoin="round" opacity="0.64"/><polyline points="433,153 438,176 448,197 415,188 369,147" fill="none" stroke="#e0aaff" stroke-width="3.8" stroke-linecap="round" stroke-linejoin="round" opacity="0.76"/><polyline points="367,535 370,609 303,661 339,601 277,594 327,554" fill="none" stroke="#5a189a" stroke-width="2.2" stroke-linecap="round" stroke-linejoin="round" opacity="0.76"/><polyline points="223,156 162,132 163,68 158,72 103,129" fill="none" stroke="#c77dff" stroke-width="4.6" stroke-linecap="round" stroke-linejoin="round" opacity="0.33"/><polyline points="310,77 301,-0 261,-64 300,-76 369,-140 380,-116" fill="none" stroke="#c77dff" stroke-width="2.7" stroke-linecap="round" stroke-linejoin="round" opacity="0.54"/><polyline points="268,534 288,503 251,580 234,619 254,637" fill="none" stroke="#e0aaff" stroke-width="3.0" stroke-linecap="round" stroke-linejoin="round" opacity="0.89"/><polyline points="322,696 396,769 432,818 391,852 382,926 331,992" fill="none" stroke="#9d4edd" stroke-width="2.6" stroke-linecap="round" stroke-linejoin="round" opacity="0.58"/><polyline points="176,221 111,241 55,176 120,113 79,45" fill="none" stroke="#9d4edd" stroke-width="3.7" stroke-linecap="round" stroke-linejoin="round" opacity="0.90"/><circle cx="699.323277314188" cy="677.8143824804102" r="5.302238860123905" fill="#5a189a" opacity="0.8"/><circle cx="131.6321316305043" cy="789.9630687422085" r="5.691040148819426" fill="#5a189a" opacity="0.8"/><circle cx="483.11206367173423" cy="369.37944316507514" r="4.961750181670048" fill="#5a189a" opacity="0.8"/><circle cx="756.8720020306026" cy="637.0252902206204" r="3.3535601781572617" fill="#9d4edd" opacity="0.8"/>
<text x="400" y="780" text-anchor="middle" fill="#334" font-family="monospace" font-size="10">organism:940d32b55fc3 | squiggles</text>
</svg>