<svg xmlns="http://www.w3.org/2000/svg" viewBox="0 0 800 800">
<rect width="800" height="800" fill="#0a0e1a"/>
<path d="M358,529 L351,551 L330,570 L296,563 L289,529 L311,511 L330,489 L347,512 L352,529Z" fill="#073b4c" opacity="0.51"/><path d="M782,538 L746,607 L685,575 L655,538 L669,475 L726,503 L776,538Z" fill="#073b4c" opacity="0.39"/><path d="M679,164 L615,227 L542,229 L511,164 L553,119 L626,83 L640,164Z" fill="#073b4c" opacity="0.87"/><path d="M467,311 L427,378 L359,379 L278,358 L306,278 L355,230 L429,242 L466,311Z" fill="#06d6a0" opacity="0.60"/><path d="M734,634 L725,665 L688,668 L667,634 L689,601 L719,614 L743,634Z" fill="#118ab2" opacity="0.33"/><path d="M356,465 L343,517 L266,546 L259,465 L286,418 L335,427 L365,465Z" fill="#06d6a0" opacity="0.65"/><path d="M257,260 L270,305 L225,293 L177,308 L177,260 L181,216 L225,198 L254,231 L264,260Z" fill="#ffd166" opacity="0.79"/><path d="M248,168 L201,265 L112,226 L87,168 L111,110 L188,94 L215,168Z" fill="#ffd166" opacity="0.88"/><path d="M590,623 L589,642 L570,645 L542,652 L547,623 L540,593 L570,582 L592,601 L600,623Z" fill="#ef476f" opacity="0.60"/><path d="M525,601 L494,639 L451,658 L409,627 L415,578 L454,559 L494,562 L551,601Z" fill="#073b4c" opacity="0.42"/><path d="M739,495 L730,540 L683,531 L648,495 L685,461 L724,461 L753,495Z" fill="#06d6a0" opacity="0.73"/><path d="M147,656 L121,766 L41,688 L-8,588 L111,577 L163,656Z" fill="#073b4c" opacity="0.32"/><circle cx="104.81887985919886" cy="241.8355041607419" r="4.306994913699405" fill="#118ab2" opacity="0.8"/><circle cx="33.60953977058357" cy="626.7129337806034" r="2.2252158152739265" fill="#ef476f" opacity="0.8"/><circle cx="666.3675033873991" cy="681.0741448126485" r="4.231709245775113" fill="#06d6a0" opacity="0.8"/>
<text x="400" y="780" text-anchor="middle" fill="#334" font-family="monospace" font-size="10">organism:8478511438fc | blobs</text>
</svg>