<svg xmlns="http://www.w3.org/2000/svg" viewBox="0 0 800 800">
<rect width="800" height="800" fill="#0a0e1a"/>
<circle cx="197.7384706007148" cy="194.16025713992886" r="19.928800976200357" fill="#560bad" opacity="0.88"/><circle cx="413.6638118838667" cy="280.5101390887302" r="36.56921987870259" fill="none" stroke="#b5179e" stroke-width="2.5" opacity="0.65"/><circle cx="446.4288988261575" cy="688.2368763619139" r="55.3144606664967" fill="none" stroke="#7209b7" stroke-width="3.3" opacity="0.80"/><circle cx="116.10859478740826" cy="270.505558936864" r="30.01102732104197" fill="#b5179e" opacity="0.55"/><circle cx="61.05023973531954" cy="493.78222024780473" r="32.73170626235217" fill="none" stroke="#480ca8" stroke-width="1.7" opacity="0.75"/><circle cx="429.67645116808933" cy="578.5355504804967" r="66.4735992385918" fill="none" stroke="#560bad" stroke-width="3.3" opacity="0.51"/><circle cx="351.2220726532031" cy="414.487178525889" r="70.06978768513461" fill="#7209b7" opacity="0.72"/><circle cx="72.5312812986596" cy="501.0017907136762" r="104.86536242272459" fill="#480ca8" opacity="0.56"/><circle cx="736.7757228278049" cy="667.5452471985126" r="112.5742655946953" fill="#3f37c9" opacity="0.75"/><circle cx="674.5967269272059" cy="138.95493095921884" r="73.81965214490245" fill="#560bad" opacity="0.74"/><circle cx="278.8333023584007" cy="683.2609981500194" r="92.32161104987392" fill="none" stroke="#7209b7" stroke-width="3.1" opacity="0.71"/><circle cx="680.4678356051702" cy="125.71684957878142" r="19.50747740049303" fill="none" stroke="#7209b7" stroke-width="2.1" opacity="0.32"/><circle cx="708.7716047753956" cy="530.8846319755091" r="92.45974142740022" fill="none" stroke="#f72585" stroke-width="2.7" opacity="0.81"/><circle cx="236.76782581035724" cy="713.3690120580874" r="29.175087973131212" fill="#3f37c9" opacity="0.90"/><circle cx="443.82977485670204" cy="422.6982006044752" r="16.917814442909723" fill="#560bad" opacity="0.36"/><circle cx="397.82456763520213" cy="549.355779180825" r="113.72720532513743" fill="#b5179e" opacity="0.58"/><circle cx="375.7229805204718" cy="461.31413323258056" r="30.98395348604721" fill="#560bad" opacity="0.38"/><circle cx="310.65215927258373" cy="307.45780496465164" r="24.146434597576345" fill="none" stroke="#f72585" stroke-width="3.0" opacity="0.73"/><circle cx="18.011596267492536" cy="498.5807015313024" r="5.747667054774475" fill="#f72585" opacity="0.8"/><circle cx="662.6733438812931" cy="576.3639982585463" r="2.786698993710131" fill="#3f37c9" opacity="0.8"/>
<text x="400" y="780" text-anchor="middle" fill="#334" font-family="monospace" font-size="10">organism:391401447dfa | circles</text>
</svg>