<svg xmlns="http://www.w3.org/2000/svg" viewBox="0 0 800 800">
<rect width="800" height="800" fill="#0a0e1a"/>
<path d="M520,635 L484,682 L427,666 L433,609 L484,588 L492,635Z" fill="#c77dff" opacity="0.62"/><path d="M791,542 L760,580 L714,607 L655,577 L669,513 L711,463 L776,483 L792,542Z" fill="#7b2cbf" opacity="0.53"/><path d="M167,700 L135,762 L46,750 L35,641 L129,654 L188,700Z" fill="#9d4edd" opacity="0.79"/><path d="M427,297 L398,326 L364,327 L314,297 L350,242 L401,263 L440,297Z" fill="#e0aaff" opacity="0.81"/><path d="M461,152 L445,176 L401,178 L399,124 L450,111 L462,152Z" fill="#c77dff" opacity="0.83"/><path d="M203,451 L120,524 L29,500 L56,421 L112,403 L153,451Z" fill="#c77dff" opacity="0.69"/><path d="M664,160 L599,227 L519,230 L504,160 L509,71 L604,83 L636,160Z" fill="#9d4edd" opacity="0.66"/><path d="M738,671 L713,762 L633,719 L605,671 L631,619 L708,589 L724,671Z" fill="#9d4edd" opacity="0.43"/><path d="M659,553 L648,581 L619,583 L600,565 L592,537 L619,522 L646,528 L670,553Z" fill="#9d4edd" opacity="0.50"/><path d="M346,528 L301,565 L246,587 L214,528 L238,456 L316,465 L333,528Z" fill="#e0aaff" opacity="0.50"/><path d="M676,208 L656,257 L581,251 L579,163 L655,162 L715,208Z" fill="#5a189a" opacity="0.43"/><circle cx="77.19073350368602" cy="120.36318408016476" r="5.667965331178474" fill="#c77dff" opacity="0.8"/><circle cx="331.8049319809049" cy="20.58743012812041" r="4.863080910461168" fill="#7b2cbf" opacity="0.8"/><circle cx="114.84349359752261" cy="324.93384998441906" r="5.560049832933739" fill="#e0aaff" opacity="0.8"/>
<text x="400" y="780" text-anchor="middle" fill="#334" font-family="monospace" font-size="10">organism:61fa3b691b7b | blobs</text>
</svg>