<svg xmlns="http://www.w3.org/2000/svg" viewBox="0 0 800 800">
<rect width="800" height="800" fill="#0a0e1a"/>
<path d="M208,190 L172,243 L119,272 L67,242 L39,190 L60,131 L119,108 L161,149 L185,190Z" fill="#ffbf00" opacity="0.90"/><path d="M209,330 L198,351 L177,381 L155,352 L150,330 L150,303 L177,299 L205,302 L212,330Z" fill="#ffbf00" opacity="0.61"/><path d="M569,538 L551,565 L524,561 L491,557 L505,526 L523,508 L552,510 L564,538Z" fill="#a855f7" opacity="0.85"/><path d="M442,222 L395,295 L324,276 L275,252 L286,198 L316,132 L378,170 L408,222Z" fill="#ff4d61" opacity="0.39"/><path d="M440,472 L366,561 L267,523 L254,412 L368,377 L427,472Z" fill="#0cbb76" opacity="0.87"/><path d="M503,603 L451,647 L359,660 L387,567 L451,562 L509,603Z" fill="#a855f7" opacity="0.83"/><path d="M714,689 L684,739 L642,712 L597,689 L633,651 L678,650 L705,689Z" fill="#ff4d61" opacity="0.40"/><path d="M300,104 L239,151 L173,171 L163,104 L190,66 L248,42 L290,104Z" fill="#a855f7" opacity="0.60"/><path d="M771,95 L737,149 L683,164 L618,160 L613,95 L631,44 L683,20 L742,36 L727,95Z" fill="#0cbb76" opacity="0.36"/><path d="M256,249 L252,273 L218,282 L217,249 L227,230 L252,222 L256,249Z" fill="#ffbf00" opacity="0.69"/><path d="M269,191 L274,228 L238,230 L196,233 L208,191 L212,166 L238,135 L257,172 L264,191Z" fill="#ffbf00" opacity="0.90"/><path d="M814,530 L791,606 L716,597 L647,571 L655,494 L712,447 L758,496 L810,530Z" fill="#1f73ff" opacity="0.63"/><path d="M478,159 L461,201 L410,238 L347,198 L347,120 L404,55 L464,113 L535,159Z" fill="#ffbf00" opacity="0.73"/><path d="M657,632 L619,693 L558,692 L506,684 L492,632 L509,583 L558,529 L647,543 L692,632Z" fill="#1f73ff" opacity="0.65"/><path d="M604,605 L584,657 L527,653 L470,605 L533,568 L598,530 L636,605Z" fill="#0cbb76" opacity="0.83"/><path d="M678,102 L636,155 L584,126 L568,65 L638,42 L696,102Z" fill="#ff4d61" opacity="0.36"/><path d="M732,682 L647,764 L537,742 L519,608 L639,622 L704,682Z" fill="#1f73ff" opacity="0.43"/><path d="M117,565 L107,587 L85,599 L60,590 L57,565 L51,531 L85,528 L115,535 L106,565Z" fill="#ff4d61" opacity="0.70"/><path d="M356,244 L323,344 L228,290 L210,186 L315,168 L403,244Z" fill="#1f73ff" opacity="0.57"/><circle cx="31.633167630266" cy="581.9311051369398" r="4.189298741908944" fill="#ffbf00" opacity="0.8"/><circle cx="716.9586457608383" cy="738.0254934009362" r="2.5627003559275234" fill="#ff8c00" opacity="0.8"/><circle cx="779.8624353135734" cy="315.1948732832909" r="5.275972032885848" fill="#ffbf00" opacity="0.8"/>
<text x="400" y="780" text-anchor="middle" fill="#334" font-family="monospace" font-size="10">organism:3b5418debd21 | blobs</text>
</svg>