<svg xmlns="http://www.w3.org/2000/svg" viewBox="0 0 800 800">
<rect width="800" height="800" fill="#0a0e1a"/>
<rect x="367.89036825502365" y="109.37532003395745" width="30.73268697745035" height="30.73268697745035" fill="#7209b7" opacity="0.86" rx="3" transform="rotate(6 383.25671174374884 124.74166352268263)"/><rect x="101.4225679355272" y="137.87927164776545" width="28.540752887163478" height="28.540752887163478" fill="#480ca8" opacity="0.39" rx="1" transform="rotate(28 115.69294437910894 152.1496480913472)"/><rect x="77.68912219401966" y="660.2724855978876" width="36.77012576586876" height="36.77012576586876" fill="#f72585" opacity="0.75" rx="5" transform="rotate(22 96.07418507695404 678.6575484808219)"/><rect x="215.78959197339148" y="595.2027506365574" width="38.44044162623687" height="38.44044162623687" fill="#f72585" opacity="0.76" rx="3" transform="rotate(45 235.0098127865099 614.4229714496759)"/><rect x="538.0588636319858" y="642.567063469516" width="25.217759041264785" height="25.217759041264785" fill="#7209b7" opacity="0.48" rx="7" transform="rotate(7 550.6677431526182 655.1759429901484)"/><rect x="173.58075632381195" y="74.28689312137959" width="15.406507053117888" height="15.406507053117888" fill="#560bad" opacity="0.49" rx="7" transform="rotate(40 181.2840098503709 81.99014664793853)"/><rect x="194.4139355653699" y="383.99538510244435" width="19.87790255605992" height="19.87790255605992" fill="#560bad" opacity="0.51" rx="5" transform="rotate(31 204.35288684339986 393.9343363804743)"/><rect x="196.10149301762175" y="174.42577223810133" width="22.65791934125595" height="22.65791934125595" fill="#b5179e" opacity="0.48" rx="5" transform="rotate(2 207.43045268824972 185.7547319087293)"/><rect x="627.8723431751923" y="322.1414891240905" width="33.10075353764462" height="33.10075353764462" fill="#b5179e" opacity="0.47" rx="6" transform="rotate(17 644.4227199440146 338.69186589291286)"/><rect x="411.0053321244867" y="311.4213398057311" width="38.866183124434855" height="38.866183124434855" fill="#f72585" opacity="0.59" rx="7" transform="rotate(33 430.43842368670414 330.85443136794856)"/><rect x="205.24159469961106" y="367.21858447781574" width="32.49991774514078" height="32.49991774514078" fill="#b5179e" opacity="0.78" rx="0" transform="rotate(8 221.49155357218143 383.46854335038614)"/><rect x="637.1084930973121" y="217.36328668269397" width="39.82367183194769" height="39.82367183194769" fill="#560bad" opacity="0.50" rx="6" transform="rotate(22 657.020329013286 237.27512259866782)"/><rect x="195.79440322515578" y="184.43251877506884" width="35.78142707127971" height="35.78142707127971" fill="#7209b7" opacity="0.55" rx="5" transform="rotate(41 213.68511676079564 202.3232323107087)"/><circle cx="719.6900372469004" cy="76.97077227847603" r="4.954186566155268" fill="#3f37c9" opacity="0.8"/><circle cx="466.1566040878809" cy="244.99411013470072" r="3.8069256114149694" fill="#480ca8" opacity="0.8"/>
<text x="400" y="780" text-anchor="middle" fill="#334" font-family="monospace" font-size="10">organism:50de498fb806 | grid</text>
</svg>