<svg xmlns="http://www.w3.org/2000/svg" viewBox="0 0 800 800">
<rect width="800" height="800" fill="#0a0e1a"/>
<polygon points="334,182 350,222 392,225 359,252 370,293 334,271 298,293 308,252 275,225 318,222" fill="#9d4edd" opacity="0.58"/><polygon points="385,292 395,313 417,311 404,329 417,348 395,346 385,367 375,346 352,348 365,329 352,311 375,313" fill="#e0aaff" opacity="0.56"/><polygon points="647,155 665,190 703,181 686,217 716,241 678,250 678,289 647,265 617,289 617,250 579,241 609,217 592,181 630,190" fill="#7b2cbf" opacity="0.69"/><polygon points="336,132 358,173 404,181 372,215 378,262 336,242 294,262 300,215 268,181 313,173" fill="#c77dff" opacity="0.86"/><polygon points="201,618 210,649 240,637 222,664 250,680 218,682 223,714 201,690 179,714 184,682 152,680 180,664 162,637 191,649" fill="#e0aaff" opacity="0.30"/><polygon points="167,426 181,469 225,459 194,493 225,527 181,517 167,560 153,517 109,527 140,493 109,459 153,469" fill="#c77dff" opacity="0.39"/><polygon points="565,374 572,388 588,385 581,400 594,410 578,414 578,430 565,420 552,430 552,414 536,410 548,400 542,385 558,388" fill="#e0aaff" opacity="0.58"/><polygon points="455,304 469,330 498,336 478,358 482,387 455,374 428,387 432,358 411,336 440,330" fill="#7b2cbf" opacity="0.33"/><polygon points="187,174 202,218 247,203 222,242 261,268 215,273 220,320 187,286 153,320 158,273 112,268 151,242 126,203 171,218" fill="#5a189a" opacity="0.75"/><polygon points="743,68 754,90 778,94 760,111 765,135 743,123 721,135 726,111 708,94 733,90" fill="#5a189a" opacity="0.30"/><polygon points="177,344 183,362 203,362 187,374 193,392 177,381 162,392 167,374 152,362 171,362" fill="#e0aaff" opacity="0.38"/><polygon points="313,364 322,405 361,392 330,419 361,447 322,434 313,474 305,434 266,447 296,419 266,392 305,405" fill="#9d4edd" opacity="0.73"/><polygon points="184,540 189,557 207,557 193,567 198,584 184,573 170,584 176,567 161,557 179,557" fill="#7b2cbf" opacity="0.30"/><polygon points="71,652 88,680 121,681 105,710 121,738 88,739 71,767 54,739 22,738 37,710 22,681 54,680" fill="#e0aaff" opacity="0.85"/><polygon points="503,60 518,99 558,86 537,123 572,146 530,152 534,194 503,165 472,194 476,152 434,146 469,123 448,86 488,99" fill="#c77dff" opacity="0.61"/><polygon points="279,23 293,55 324,69 293,82 279,114 265,82 233,69 265,55" fill="#e0aaff" opacity="0.77"/><circle cx="615.3843106835172" cy="529.6904200641001" r="3.2359214470858864" fill="#5a189a" opacity="0.8"/><circle cx="24.588476357159283" cy="796.337135185955" r="5.49555642666358" fill="#5a189a" opacity="0.8"/>
<text x="400" y="780" text-anchor="middle" fill="#334" font-family="monospace" font-size="10">organism:c7188545822e | stars</text>
</svg>