<svg xmlns="http://www.w3.org/2000/svg" viewBox="0 0 800 800">
<rect width="800" height="800" fill="#0a0e1a"/>
<rect x="469.75243173392556" y="103.85505894411544" width="21.093411756852685" height="21.093411756852685" fill="#ffbe0b" opacity="0.78" rx="5" transform="rotate(21 480.2991376123519 114.40176482254178)"/><rect x="161.78053556549207" y="193.4031677026657" width="25.909317284265956" height="25.909317284265956" fill="#ff006e" opacity="0.39" rx="4" transform="rotate(13 174.73519420762506 206.3578263447987)"/><rect x="305.6877657473911" y="115.76561743809582" width="37.58052121279867" height="37.58052121279867" fill="#00ffcc" opacity="0.51" rx="4" transform="rotate(4 324.4780263537904 134.55587804449516)"/><rect x="218.41559124313878" y="577.6972198709884" width="37.45318322097121" height="37.45318322097121" fill="#ff006e" opacity="0.46" rx="8" transform="rotate(44 237.14218285362438 596.423811481474)"/><rect x="724.6483433635083" y="105.6429653577047" width="18.706943326233787" height="18.706943326233787" fill="#ffbe0b" opacity="0.85" rx="3" transform="rotate(1 734.0018150266252 114.99643702082159)"/><rect x="442.48079331597427" y="131.6428868888654" width="34.31247515097855" height="34.31247515097855" fill="#ffbe0b" opacity="0.54" rx="2" transform="rotate(23 459.63703089146355 148.7991244643547)"/><rect x="173.62619429131814" y="91.77946446979834" width="15.097263261674913" height="15.097263261674913" fill="#ffbe0b" opacity="0.62" rx="1" transform="rotate(33 181.1748259221556 99.3280961006358)"/><rect x="287.00207416793" y="502.60371200045336" width="16.33032201219417" height="16.33032201219417" fill="#ffbe0b" opacity="0.48" rx="1" transform="rotate(39 295.1672351740271 510.76887300655045)"/><rect x="267.65436718419335" y="672.5408220740618" width="22.747018004073684" height="22.747018004073684" fill="#ffbe0b" opacity="0.81" rx="0" transform="rotate(4 279.0278761862302 683.9143310760986)"/><rect x="568.7371129514479" y="414.44961749759017" width="34.139853061668724" height="34.139853061668724" fill="#3a86ff" opacity="0.62" rx="2" transform="rotate(24 585.8070394822822 431.51954402842455)"/><rect x="184.49592599354523" y="571.7639795551063" width="26.09923718437649" height="26.09923718437649" fill="#ffbe0b" opacity="0.84" rx="8" transform="rotate(29 197.54554458573347 584.8135981472946)"/><rect x="716.7797630596335" y="354.4092417341811" width="18.638275640500595" height="18.638275640500595" fill="#3a86ff" opacity="0.47" rx="6" transform="rotate(4 726.0989008798838 363.7283795544314)"/><rect x="276.4681348010585" y="127.49503463735009" width="29.414274286529594" height="29.414274286529594" fill="#00ffcc" opacity="0.57" rx="3" transform="rotate(22 291.1752719443233 142.2021717806149)"/><rect x="503.64796696814693" y="75.25460937722667" width="27.719306895680162" height="27.719306895680162" fill="#3a86ff" opacity="0.83" rx="3" transform="rotate(26 517.507620415987 89.11426282506676)"/><rect x="595.5511210373793" y="332.37140141133665" width="35.048890793111966" height="35.048890793111966" fill="#fb5607" opacity="0.78" rx="5" transform="rotate(4 613.0755664339353 349.8958468078926)"/><rect x="189.28630881789226" y="84.04054948468267" width="37.01884351650635" height="37.01884351650635" fill="#3a86ff" opacity="0.69" rx="1" transform="rotate(30 207.79573057614544 102.54997124293584)"/><rect x="80.81078644134209" y="242.0725029169874" width="19.279206398288697" height="19.279206398288697" fill="#3a86ff" opacity="0.59" rx="1" transform="rotate(9 90.45038964048643 251.71210611613174)"/><rect x="455.8076083616531" y="330.04122842012765" width="39.99395029093451" height="39.99395029093451" fill="#00ffcc" opacity="0.73" rx="7" transform="rotate(18 475.80458350712036 350.0382035655949)"/><rect x="268.7944902885096" y="671.7725021708294" width="15.564655978013038" height="15.564655978013038" fill="#ff006e" opacity="0.40" rx="7" transform="rotate(16 276.57681827751617 679.5548301598359)"/><rect x="391.45942315904364" y="126.23450938975786" width="38.29844694551936" height="38.29844694551936" fill="#3a86ff" opacity="0.35" rx="3" transform="rotate(35 410.6086466318033 145.38373286251755)"/><rect x="296.4139208312042" y="96.62239651813533" width="29.537986738254034" height="29.537986738254034" fill="#ffbe0b" opacity="0.47" rx="1" transform="rotate(28 311.18291420033125 111.39138988726235)"/><rect x="656.5280897595666" y="260.3820849651362" width="17.15404191033304" height="17.15404191033304" fill="#ff006e" opacity="0.68" rx="3" transform="rotate(23 665.1051107147331 268.9591059203027)"/><rect x="367.58160088845887" y="79.76125813759009" width="18.72825368449053" height="18.72825368449053" fill="#00ffcc" opacity="0.75" rx="5" transform="rotate(33 376.9457277307041 89.12538497983536)"/><rect x="642.7679479305675" y="288.43730999993306" width="26.907595280570792" height="26.907595280570792" fill="#3a86ff" opacity="0.82" rx="5" transform="rotate(7 656.2217455708529 301.8911076402185)"/><circle cx="622.2530051441557" cy="215.33752164100787" r="4.766833400157623" fill="#00ffcc" opacity="0.8"/><circle cx="103.03054316910946" cy="260.59050885316896" r="3.378413758560996" fill="#fb5607" opacity="0.8"/><circle cx="73.44273919469133" cy="34.69544521788856" r="5.916723680112977" fill="#00ffcc" opacity="0.8"/>
<text x="400" y="780" text-anchor="middle" fill="#334" font-family="monospace" font-size="10">organism:e078bfa84be0 | grid</text>
</svg>