<svg xmlns="http://www.w3.org/2000/svg" viewBox="0 0 800 800">
<rect width="800" height="800" fill="#0a0e1a"/>
<polyline points="493,274 520,237 457,305 520,287 447,289 408,339 359,270" fill="none" stroke="#ff006e" stroke-width="5.9" stroke-linecap="round" stroke-linejoin="round" opacity="0.36"/><polyline points="430,337 389,290 453,236 492,252 484,231 417,289 420,299" fill="none" stroke="#00ffcc" stroke-width="3.3" stroke-linecap="round" stroke-linejoin="round" opacity="0.85"/><polyline points="685,481 636,537 569,557 560,482 524,439 587,400" fill="none" stroke="#00ffcc" stroke-width="2.8" stroke-linecap="round" stroke-linejoin="round" opacity="0.49"/><polyline points="335,87 398,139 374,63 427,120 363,59 338,102" fill="none" stroke="#3a86ff" stroke-width="2.7" stroke-linecap="round" stroke-linejoin="round" opacity="0.40"/><polyline points="560,526 623,600 555,587 575,598 514,670 513,727" fill="none" stroke="#ff006e" stroke-width="4.7" stroke-linecap="round" stroke-linejoin="round" opacity="0.57"/><polyline points="297,110 284,126 244,100 208,96" fill="none" stroke="#ff006e" stroke-width="3.4" stroke-linecap="round" stroke-linejoin="round" opacity="0.73"/><polyline points="698,590 742,589 722,515 769,570 727,627 647,588 705,550" fill="none" stroke="#00ffcc" stroke-width="3.4" stroke-linecap="round" stroke-linejoin="round" opacity="0.70"/><polyline points="410,226 438,210 481,192 478,271" fill="none" stroke="#ffbe0b" stroke-width="5.4" stroke-linecap="round" stroke-linejoin="round" opacity="0.65"/><polyline points="708,242 630,185 572,233 590,252 535,189 466,154 474,192" fill="none" stroke="#3a86ff" stroke-width="4.2" stroke-linecap="round" stroke-linejoin="round" opacity="0.72"/><polyline points="17,758 -24,743 -102,786 -153,749 -99,790 -124,840" fill="none" stroke="#ffbe0b" stroke-width="4.3" stroke-linecap="round" stroke-linejoin="round" opacity="0.36"/><polyline points="190,479 137,516 67,546 54,616 27,645" fill="none" stroke="#ff006e" stroke-width="3.6" stroke-linecap="round" stroke-linejoin="round" opacity="0.71"/><polyline points="367,150 386,159 317,162 335,207 319,145 250,87" fill="none" stroke="#3a86ff" stroke-width="5.2" stroke-linecap="round" stroke-linejoin="round" opacity="0.54"/><circle cx="82.08773438536979" cy="651.9471411237415" r="5.597411716129303" fill="#3a86ff" opacity="0.8"/><circle cx="785.2798443686459" cy="380.3707115688335" r="3.074233901203766" fill="#3a86ff" opacity="0.8"/><circle cx="409.685296728414" cy="176.78032685092572" r="3.5097069052855883" fill="#ffbe0b" opacity="0.8"/>
<text x="400" y="780" text-anchor="middle" fill="#334" font-family="monospace" font-size="10">organism:9bc115c8910d | squiggles</text>
</svg>