<svg xmlns="http://www.w3.org/2000/svg" viewBox="0 0 800 800">
<rect width="800" height="800" fill="#0a0e1a"/>
<path d="M167,161 L169,192 L138,191 L116,183 L118,161 L121,144 L138,137 L166,134 L168,161Z" fill="#fb5607" opacity="0.60"/><path d="M562,467 L507,511 L461,503 L430,467 L455,421 L517,406 L534,467Z" fill="#ff006e" opacity="0.73"/><path d="M363,366 L348,387 L327,404 L309,384 L299,366 L309,348 L327,331 L352,341 L366,366Z" fill="#ff006e" opacity="0.85"/><path d="M154,134 L142,175 L96,171 L70,134 L92,89 L142,92 L149,134Z" fill="#3a86ff" opacity="0.32"/><path d="M269,205 L220,244 L181,279 L123,262 L137,205 L124,148 L181,155 L227,158 L242,205Z" fill="#3a86ff" opacity="0.36"/><path d="M416,483 L353,536 L294,531 L248,483 L292,431 L376,388 L399,483Z" fill="#00ffcc" opacity="0.82"/><path d="M250,246 L177,304 L106,284 L115,215 L172,201 L235,246Z" fill="#ff006e" opacity="0.60"/><path d="M501,664 L468,685 L439,693 L421,664 L439,633 L469,642 L487,664Z" fill="#fb5607" opacity="0.65"/><path d="M540,673 L526,704 L496,727 L458,712 L461,673 L455,633 L496,631 L535,634 L528,673Z" fill="#ff006e" opacity="0.71"/><path d="M422,290 L399,315 L366,322 L342,290 L368,263 L402,259 L421,290Z" fill="#ff006e" opacity="0.89"/><path d="M397,688 L355,740 L259,746 L297,658 L365,606 L437,688Z" fill="#ff006e" opacity="0.68"/><path d="M457,293 L420,334 L374,356 L325,323 L334,267 L372,226 L428,242 L448,293Z" fill="#fb5607" opacity="0.88"/><path d="M739,317 L699,379 L632,351 L621,275 L710,219 L732,317Z" fill="#ff006e" opacity="0.42"/><path d="M704,124 L678,159 L639,173 L624,136 L599,99 L640,81 L674,94 L693,124Z" fill="#00ffcc" opacity="0.88"/><path d="M580,597 L525,652 L455,665 L397,597 L454,528 L518,556 L581,597Z" fill="#ff006e" opacity="0.31"/><path d="M504,554 L472,601 L413,586 L431,536 L464,532 L487,554Z" fill="#fb5607" opacity="0.31"/><path d="M177,459 L162,482 L132,509 L115,473 L115,445 L138,435 L159,439 L190,459Z" fill="#ff006e" opacity="0.72"/><path d="M410,314 L379,359 L325,363 L324,314 L330,274 L371,283 L396,314Z" fill="#00ffcc" opacity="0.73"/><path d="M519,642 L477,727 L369,700 L408,611 L470,578 L526,642Z" fill="#3a86ff" opacity="0.71"/><path d="M531,65 L513,105 L474,84 L476,48 L516,15 L544,65Z" fill="#00ffcc" opacity="0.70"/><circle cx="178.14028816685433" cy="595.5604702438773" r="2.9461587576119643" fill="#ffbe0b" opacity="0.8"/><circle cx="436.2510150151435" cy="543.5770809662135" r="3.7587544152558774" fill="#fb5607" opacity="0.8"/><circle cx="250.64564824089643" cy="311.81032552686554" r="4.398725350327679" fill="#00ffcc" opacity="0.8"/>
<text x="400" y="780" text-anchor="middle" fill="#334" font-family="monospace" font-size="10">organism:5671158439dc | blobs</text>
</svg>