<svg xmlns="http://www.w3.org/2000/svg" viewBox="0 0 800 800">
<rect width="800" height="800" fill="#0a0e1a"/>
<path d="M670,115 L638,164 L580,196 L530,147 L537,85 L587,62 L654,46 L646,115Z" fill="#560bad" opacity="0.41"/><path d="M585,601 L560,654 L507,655 L463,646 L439,601 L477,571 L507,518 L553,555 L578,601Z" fill="#3f37c9" opacity="0.73"/><path d="M527,253 L481,308 L426,373 L343,335 L293,253 L362,189 L426,155 L518,161 L488,253Z" fill="#3f37c9" opacity="0.68"/><path d="M831,606 L766,639 L720,689 L680,634 L679,577 L721,528 L783,550 L801,606Z" fill="#7209b7" opacity="0.79"/><path d="M679,342 L634,421 L518,407 L527,282 L647,222 L697,342Z" fill="#7209b7" opacity="0.35"/><path d="M786,565 L797,632 L731,666 L687,610 L627,565 L654,489 L731,486 L795,502 L822,565Z" fill="#480ca8" opacity="0.71"/><path d="M714,750 L660,814 L561,856 L543,750 L577,670 L684,644 L713,750Z" fill="#b5179e" opacity="0.33"/><path d="M421,469 L390,505 L350,523 L321,489 L315,447 L346,401 L386,438 L411,469Z" fill="#7209b7" opacity="0.31"/><path d="M123,642 L85,689 L31,670 L28,612 L96,561 L173,642Z" fill="#7209b7" opacity="0.50"/><path d="M471,61 L449,101 L410,89 L385,76 L360,33 L405,11 L445,25 L475,61Z" fill="#b5179e" opacity="0.69"/><path d="M125,171 L102,206 L67,197 L53,171 L70,150 L100,140 L124,171Z" fill="#f72585" opacity="0.58"/><path d="M177,327 L187,367 L147,361 L125,348 L114,327 L105,285 L147,273 L187,286 L182,327Z" fill="#480ca8" opacity="0.89"/><path d="M699,119 L663,145 L621,143 L633,103 L669,73 L695,119Z" fill="#480ca8" opacity="0.87"/><path d="M577,234 L581,318 L497,348 L445,286 L391,234 L451,188 L497,132 L585,146 L586,234Z" fill="#f72585" opacity="0.30"/><path d="M209,373 L199,415 L156,420 L119,410 L111,373 L114,330 L156,318 L210,319 L229,373Z" fill="#f72585" opacity="0.43"/><path d="M781,487 L764,503 L748,519 L725,509 L713,487 L720,459 L748,457 L777,457 L791,487Z" fill="#f72585" opacity="0.78"/><path d="M749,317 L685,367 L627,393 L577,350 L540,266 L631,255 L688,263 L710,317Z" fill="#480ca8" opacity="0.40"/><path d="M801,146 L797,226 L710,247 L643,189 L681,121 L719,88 L785,80 L830,146Z" fill="#560bad" opacity="0.78"/><path d="M432,708 L386,751 L343,804 L261,791 L247,708 L269,633 L343,627 L404,647 L453,708Z" fill="#b5179e" opacity="0.49"/><circle cx="290.23515655525614" cy="315.40922315491935" r="3.6427280030632696" fill="#b5179e" opacity="0.8"/><circle cx="26.96633799533048" cy="105.32289958473307" r="2.9648871809893924" fill="#560bad" opacity="0.8"/><circle cx="20.077014303980345" cy="259.8101626998335" r="2.287532462111577" fill="#7209b7" opacity="0.8"/><circle cx="244.1660931948885" cy="410.66199076619216" r="3.349011710125852" fill="#3f37c9" opacity="0.8"/>
<text x="400" y="780" text-anchor="middle" fill="#334" font-family="monospace" font-size="10">organism:4f6b14079da2 | blobs</text>
</svg>