<svg xmlns="http://www.w3.org/2000/svg" viewBox="0 0 800 800">
<rect width="800" height="800" fill="#0a0e1a"/>
<path d="M691,592 L626,684 L519,685 L439,592 L512,486 L618,514 L662,592Z" fill="#ffbf00" opacity="0.74"/><path d="M545,376 L514,411 L477,404 L441,376 L473,340 L521,328 L537,376Z" fill="#1f73ff" opacity="0.66"/><path d="M152,150 L139,204 L91,180 L44,150 L89,118 L136,100 L171,150Z" fill="#a855f7" opacity="0.86"/><path d="M746,212 L726,283 L645,281 L623,212 L664,176 L706,176 L747,212Z" fill="#0cbb76" opacity="0.83"/><path d="M296,547 L281,567 L258,583 L230,564 L229,530 L255,502 L285,523 L294,547Z" fill="#0cbb76" opacity="0.57"/><path d="M475,530 L469,554 L442,568 L421,544 L418,515 L444,504 L467,509 L475,530Z" fill="#ffbf00" opacity="0.42"/><path d="M539,111 L528,152 L485,145 L453,111 L482,74 L524,77 L551,111Z" fill="#1f73ff" opacity="0.89"/><path d="M433,717 L396,749 L353,759 L331,717 L351,670 L400,678 L424,717Z" fill="#ffbf00" opacity="0.88"/><path d="M120,383 L109,412 L77,420 L56,397 L56,369 L78,351 L103,361 L123,383Z" fill="#ff8c00" opacity="0.71"/><path d="M438,692 L385,789 L262,758 L308,659 L387,588 L415,692Z" fill="#a855f7" opacity="0.77"/><path d="M682,504 L651,588 L579,536 L581,473 L648,428 L714,504Z" fill="#ffbf00" opacity="0.83"/><path d="M320,236 L270,342 L144,349 L106,236 L146,128 L263,142 L268,236Z" fill="#1f73ff" opacity="0.38"/><path d="M205,747 L185,778 L156,768 L131,761 L122,728 L152,709 L184,718 L203,747Z" fill="#ff8c00" opacity="0.71"/><path d="M605,256 L570,309 L514,317 L463,287 L461,224 L508,171 L575,196 L594,256Z" fill="#ff4d61" opacity="0.35"/><path d="M663,456 L655,519 L590,520 L499,507 L487,399 L578,340 L656,392 L662,456Z" fill="#ff4d61" opacity="0.56"/><path d="M808,165 L755,244 L677,204 L652,108 L765,57 L814,165Z" fill="#ffbf00" opacity="0.61"/><path d="M692,198 L637,251 L583,298 L546,235 L465,198 L537,152 L583,123 L671,110 L702,198Z" fill="#1f73ff" opacity="0.57"/><path d="M667,666 L630,707 L589,697 L547,666 L580,621 L634,618 L662,666Z" fill="#0cbb76" opacity="0.82"/><path d="M544,333 L488,411 L401,439 L352,368 L372,307 L400,217 L467,281 L494,333Z" fill="#ffbf00" opacity="0.55"/><path d="M380,517 L371,562 L326,566 L280,564 L272,517 L275,467 L326,474 L373,471 L418,517Z" fill="#0cbb76" opacity="0.74"/><path d="M773,524 L768,556 L732,554 L726,524 L729,488 L768,492 L773,524Z" fill="#ffbf00" opacity="0.61"/><circle cx="213.0070830647119" cy="491.916468438137" r="5.519281492537706" fill="#a855f7" opacity="0.8"/><circle cx="591.4756440481539" cy="133.02222366386155" r="2.5865119441706366" fill="#0cbb76" opacity="0.8"/><circle cx="587.7947480349379" cy="413.4114197546637" r="4.466250811001128" fill="#a855f7" opacity="0.8"/>
<text x="400" y="780" text-anchor="middle" fill="#334" font-family="monospace" font-size="10">organism:f3467b4aea94 | blobs</text>
</svg>