<svg xmlns="http://www.w3.org/2000/svg" viewBox="0 0 800 800">
<rect width="800" height="800" fill="#0a0e1a"/>
<polygon points="92.12040733592724,436.0529174659121 73.23870500341982,468.6075766598904 111.00210966843466,468.6075766598904" fill="#0cbb76" opacity="0.75" transform="rotate(207 92.12040733592724 457.756023595231)"/><polygon points="315.29627298890694,499.1320767061718 283.95343735388366,553.1714484906947 346.6391086239302,553.1714484906947" fill="#ff8c00" opacity="0.66" transform="rotate(29 315.29627298890694 535.1583245625204)"/><polygon points="76.63181615172674,180.7154102189653 21.790669533330778,275.26911128516525 131.4729627701227,275.26911128516525" fill="#ffbf00" opacity="0.34" transform="rotate(249 76.63181615172674 243.75121092976525)"/><polygon points="180.78218090277466,173.32698395012122 137.7150974782839,247.5805760613122 223.84926432726542,247.5805760613122" fill="#ff4d61" opacity="0.78" transform="rotate(25 180.78218090277466 222.8293786909152)"/><polygon points="90.04464513457378,453.6074464812975 65.78106633693135,495.44120302895686 114.30822393221622,495.44120302895686" fill="#0cbb76" opacity="0.64" transform="rotate(207 90.04464513457378 481.4966175130704)"/><polygon points="479.5771498832912,464.8432822798932 404.65957444422367,594.0115157955269 554.4947253223588,594.0115157955269" fill="#0cbb76" opacity="0.74" transform="rotate(101 479.5771498832912 550.9554379569823)"/><polygon points="117.84160771340497,287.4700099427842 73.31769506491891,364.235376578105 162.36552036189101,364.235376578105" fill="#a855f7" opacity="0.88" transform="rotate(104 117.84160771340497 338.6469210329981)"/><polygon points="415.87016361925043,575.6132020748025 387.5778529784803,624.3930480071649 444.1624742600206,624.3930480071649" fill="#0cbb76" opacity="0.71" transform="rotate(4 415.87016361925043 608.1330993630442)"/><polygon points="667.0392447758329,498.6544978237369 599.4487153243936,615.1898934296669 734.6297742272723,615.1898934296669" fill="#0cbb76" opacity="0.53" transform="rotate(247 667.0392447758329 576.3447615610236)"/><polygon points="194.86321917904164,200.1763254045838 171.7066976570091,240.10136251153642 218.01974070107417,240.10136251153642" fill="#ff8c00" opacity="0.57" transform="rotate(201 194.86321917904164 226.79301680921887)"/><polygon points="725.7265294773258,412.7317844459228 680.1853012318659,491.2511434898191 771.2677577227857,491.2511434898191" fill="#a855f7" opacity="0.49" transform="rotate(65 725.7265294773258 465.07802380852036)"/><polygon points="164.52488844700127,634.9175893846812 87.07451430984312,768.4527172073676 241.97526258415942,768.4527172073676" fill="#ff4d61" opacity="0.86" transform="rotate(190 164.52488844700127 723.9410079331388)"/><polygon points="281.91805494028864,162.54138892904263 227.51007771382902,256.34824621604196 336.3260321667483,256.34824621604196" fill="#ff4d61" opacity="0.40" transform="rotate(175 281.91805494028864 225.0792937870422)"/><polygon points="187.39337633692094,451.7702410368967 168.72072394245535,483.9644693032167 206.06602873138652,483.9644693032167" fill="#a855f7" opacity="0.49" transform="rotate(223 187.39337633692094 473.23305988111)"/><polygon points="590.0049471669189,213.1001877858513 557.0337337536273,269.9471074639403 622.9761605802105,269.9471074639403" fill="#a855f7" opacity="0.33" transform="rotate(298 590.0049471669189 250.99813423791062)"/><polygon points="726.7523582927506,10.895146243861547 657.7002296737938,129.95054041447662 795.8044869117074,129.95054041447662" fill="#ff8c00" opacity="0.54" transform="rotate(353 726.7523582927506 90.2654090242716)"/><polygon points="556.8844364339177,635.8082628694045 504.82329309708473,725.5688548294613 608.9455797707507,725.5688548294613" fill="#0cbb76" opacity="0.45" transform="rotate(148 556.8844364339177 695.6486575094424)"/><polygon points="246.0155387627851,262.9216306169039 199.66295621141245,342.8398763951326 292.36812131415775,342.8398763951326" fill="#ffbf00" opacity="0.55" transform="rotate(109 246.0155387627851 316.200461135723)"/><polygon points="91.56902373766422,273.79981489559356 45.27897789610735,353.61023876034676 137.8590695792211,353.61023876034676" fill="#1f73ff" opacity="0.60" transform="rotate(87 91.56902373766422 327.0067641387624)"/><polygon points="290.97274245332085,-19.468468187797782 204.02932216457347,130.43398058590458 377.9161627420682,130.43398058590458" fill="#ffbf00" opacity="0.58" transform="rotate(135 290.97274245332085 80.46649766133713)"/><polygon points="695.1565948797178,256.35709047897194 609.9078315522046,403.33771690571876 780.405358207231,403.33771690571876" fill="#a855f7" opacity="0.66" transform="rotate(263 695.1565948797178 354.3441747634698)"/><circle cx="796.2412184817576" cy="31.106297041908615" r="4.329707805312742" fill="#a855f7" opacity="0.8"/><circle cx="394.0911539894878" cy="161.53242672610136" r="3.182775985638353" fill="#ff4d61" opacity="0.8"/><circle cx="471.28668980571956" cy="392.05343001368186" r="5.032966691350337" fill="#1f73ff" opacity="0.8"/><circle cx="64.82186196116864" cy="747.6058261846614" r="2.749482073719836" fill="#1f73ff" opacity="0.8"/>
<text x="400" y="780" text-anchor="middle" fill="#334" font-family="monospace" font-size="10">organism:4dd1c8db3971 | triangles</text>
</svg>