<svg xmlns="http://www.w3.org/2000/svg" viewBox="0 0 800 800">
<rect width="800" height="800" fill="#0a0e1a"/>
<polygon points="422.1306712680984,397.1557816338575 342.87000038916983,533.8121107354585 501.391342147027,533.8121107354585" fill="#a855f7" opacity="0.63" transform="rotate(165 422.1306712680984 488.26000103492487)"/><polygon points="236.83872358929312,28.630716316728098 164.62181381414507,153.14262972215573 309.0556333644412,153.14262972215573" fill="#a855f7" opacity="0.65" transform="rotate(151 236.83872358929312 111.6386585870132)"/><polygon points="418.4687530318369,335.10578749330625 333.5906362083177,481.44736822351183 503.34686985535615,481.44736822351183" fill="#0cbb76" opacity="0.59" transform="rotate(166 418.4687530318369 432.6668413134433)"/><polygon points="60.24578002071066,250.7379610488324 -5.054979501479387,363.3254774664015 125.54653954290072,363.3254774664015" fill="#1f73ff" opacity="0.38" transform="rotate(319 60.24578002071066 325.79630532721177)"/><polygon points="515.6099858322891,179.51254915072735 441.6976194480006,306.9476636063972 589.5223522165776,306.9476636063972" fill="#ff8c00" opacity="0.79" transform="rotate(358 515.6099858322891 264.4692921211739)"/><polygon points="570.5704312842194,698.8861210729689 540.7106325504367,750.368532682939 600.430230018002,750.368532682939" fill="#1f73ff" opacity="0.45" transform="rotate(136 570.5704312842194 733.207728812949)"/><polygon points="255.25816452136513,433.1887525125538 204.7866418779549,520.2086191391231 305.7296871647753,520.2086191391231" fill="#0cbb76" opacity="0.52" transform="rotate(286 255.25816452136513 491.20199693026666)"/><polygon points="693.6619406783161,106.56679852299206 654.8715850997472,173.44672193431776 732.452296256885,173.44672193431776" fill="#1f73ff" opacity="0.32" transform="rotate(111 693.6619406783161 151.15341413054253)"/><polygon points="285.3973879208217,611.5503907380438 229.19816511613385,708.4456024702642 341.59661072550955,708.4456024702642" fill="#ff4d61" opacity="0.89" transform="rotate(78 285.3973879208217 676.1471985595241)"/><polygon points="747.416071911904,61.197395837252145 706.223949973647,132.21829573079873 788.6081938501611,132.21829573079873" fill="#1f73ff" opacity="0.77" transform="rotate(108 747.416071911904 108.54466243294988)"/><polygon points="491.38329211342307,581.1715231948508 422.25569855704816,700.3570293265317 560.510885669798,700.3570293265317" fill="#ffbf00" opacity="0.73" transform="rotate(8 491.38329211342307 660.6285272826381)"/><polygon points="595.5837031122164,128.02184900007228 526.5277993820463,247.0837519831243 664.6396068423866,247.0837519831243" fill="#1f73ff" opacity="0.36" transform="rotate(359 595.5837031122164 207.39645098877364)"/><polygon points="285.2330023282615,658.7164206446038 265.76356698862844,692.2844126094883 304.7024376678945,692.2844126094883" fill="#ffbf00" opacity="0.85" transform="rotate(156 285.2330023282615 681.0950819545268)"/><polygon points="719.0127490111967,265.8491777790809 680.8595308208172,331.63058845214897 757.1659672015761,331.63058845214897" fill="#a855f7" opacity="0.46" transform="rotate(36 719.0127490111967 309.70345156112626)"/><polygon points="541.5593217933873,559.6300719949525 492.6442506739389,643.9664015112428 590.4743929128357,643.9664015112428" fill="#ff4d61" opacity="0.75" transform="rotate(60 541.5593217933873 615.8542916724793)"/><polygon points="341.0934692301749,639.2339479126231 305.6727913651122,700.3040821627312 376.5141470952376,700.3040821627312" fill="#ff8c00" opacity="0.33" transform="rotate(104 341.0934692301749 679.9473707460285)"/><polygon points="284.7145556309911,69.61037461309377 259.5234854408998,113.04325425118226 309.90562582108237,113.04325425118226" fill="#a855f7" opacity="0.56" transform="rotate(328 284.7145556309911 98.56562770515276)"/><polygon points="559.4803947503368,21.9369723595792 519.7832352727448,90.38035076922048 599.1775542279288,90.38035076922048" fill="#0cbb76" opacity="0.56" transform="rotate(252 559.4803947503368 67.56589129934005)"/><circle cx="226.86989493026894" cy="611.148598451056" r="2.252939990198087" fill="#ff4d61" opacity="0.8"/><circle cx="499.2580785628718" cy="85.68970051277844" r="4.4044991085218586" fill="#ff4d61" opacity="0.8"/><circle cx="250.0590553881434" cy="655.9754750680975" r="5.1430679723058255" fill="#a855f7" opacity="0.8"/><circle cx="312.83566077984403" cy="69.85674130565602" r="3.8567013825949754" fill="#ffbf00" opacity="0.8"/>
<text x="400" y="780" text-anchor="middle" fill="#334" font-family="monospace" font-size="10">organism:29074b05c787 | triangles</text>
</svg>