<svg xmlns="http://www.w3.org/2000/svg" viewBox="0 0 800 800">
<rect width="800" height="800" fill="#0a0e1a"/>
<circle cx="135.0944783163763" cy="572.0511984508776" r="77.2758634543547" fill="#ff4d61" opacity="0.90"/><circle cx="464.9544959697684" cy="734.5594319034237" r="103.78010618693655" fill="#ff8c00" opacity="0.36"/><circle cx="437.5027805549672" cy="391.63907328419305" r="116.08227530590824" fill="#0cbb76" opacity="0.31"/><circle cx="271.03499984332973" cy="313.5195739624269" r="96.0962852142449" fill="#a855f7" opacity="0.59"/><circle cx="517.6084932567708" cy="339.4431801512813" r="115.08842865535682" fill="#ff8c00" opacity="0.55"/><circle cx="600.0578030450508" cy="215.20641846001155" r="99.6988148829232" fill="none" stroke="#0cbb76" stroke-width="3.1" opacity="0.64"/><circle cx="731.8926965361475" cy="510.24455348271994" r="117.18403962864056" fill="#a855f7" opacity="0.40"/><circle cx="268.05031590811666" cy="740.452695417455" r="60.02694261613807" fill="#ffbf00" opacity="0.33"/><circle cx="81.58563454190414" cy="218.04734751046277" r="119.74160511882825" fill="#a855f7" opacity="0.54"/><circle cx="229.4866582519347" cy="335.3370111889736" r="84.86648420496432" fill="#a855f7" opacity="0.50"/><circle cx="161.10718451335998" cy="238.87652105937178" r="88.69984435142258" fill="none" stroke="#ff8c00" stroke-width="1.6" opacity="0.30"/><circle cx="79.00954197796132" cy="658.4910407653185" r="98.36712134426709" fill="none" stroke="#ff4d61" stroke-width="1.2" opacity="0.56"/><circle cx="360.2394988609809" cy="725.4613969343321" r="117.94120953422721" fill="#a855f7" opacity="0.66"/><circle cx="645.707705980861" cy="210.295947497662" r="117.75509130491386" fill="#ff8c00" opacity="0.47"/><circle cx="718.3346916341558" cy="704.0211779660939" r="66.58250042281348" fill="none" stroke="#ff4d61" stroke-width="2.8" opacity="0.57"/><circle cx="328.1446565151458" cy="56.125464116228294" r="101.9466956482942" fill="none" stroke="#0cbb76" stroke-width="1.5" opacity="0.61"/><circle cx="77.56968444659718" cy="350.87556603125125" r="87.90248035679508" fill="none" stroke="#0cbb76" stroke-width="2.3" opacity="0.39"/><circle cx="567.1567481242055" cy="278.45512045518257" r="2.297949789962272" fill="#ffbf00" opacity="0.8"/><circle cx="245.60259651692596" cy="79.6235915364841" r="5.546824792531165" fill="#0cbb76" opacity="0.8"/>
<text x="400" y="780" text-anchor="middle" fill="#334" font-family="monospace" font-size="10">organism:cd2c7f505f52 | circles</text>
</svg>