<svg xmlns="http://www.w3.org/2000/svg" viewBox="0 0 800 800">
<rect width="800" height="800" fill="#0a0e1a"/>
<polyline points="290,389 238,385 238,368 185,447 145,437 128,456 54,508" fill="none" stroke="#480ca8" stroke-width="4.6" stroke-linecap="round" stroke-linejoin="round" opacity="0.87"/><polyline points="46,621 105,568 180,552 149,511 207,455 134,437 79,504" fill="none" stroke="#f72585" stroke-width="4.2" stroke-linecap="round" stroke-linejoin="round" opacity="0.86"/><polyline points="408,480 335,523 358,559 288,584 249,643 192,581" fill="none" stroke="#f72585" stroke-width="3.1" stroke-linecap="round" stroke-linejoin="round" opacity="0.43"/><polyline points="613,320 675,359 680,347 714,394 677,358 615,435" fill="none" stroke="#f72585" stroke-width="4.0" stroke-linecap="round" stroke-linejoin="round" opacity="0.86"/><polyline points="699,486 758,409 750,358 753,281 750,322 796,297" fill="none" stroke="#3f37c9" stroke-width="4.8" stroke-linecap="round" stroke-linejoin="round" opacity="0.63"/><polyline points="585,-2 617,-2 556,-12 501,-15 525,-43" fill="none" stroke="#560bad" stroke-width="5.4" stroke-linecap="round" stroke-linejoin="round" opacity="0.36"/><polyline points="486,658 443,719 465,731 410,803 430,847" fill="none" stroke="#b5179e" stroke-width="4.0" stroke-linecap="round" stroke-linejoin="round" opacity="0.70"/><polyline points="609,681 640,651 684,607 728,547 724,488 718,426 668,452 674,519 675,467" fill="none" stroke="#f72585" stroke-width="5.1" stroke-linecap="round" stroke-linejoin="round" opacity="0.40"/><polyline points="354,311 378,355 334,278 317,302 239,371 268,402" fill="none" stroke="#b5179e" stroke-width="3.4" stroke-linecap="round" stroke-linejoin="round" opacity="0.84"/><polyline points="414,117 396,65 379,71 364,47 408,-31 377,-73 420,-151" fill="none" stroke="#480ca8" stroke-width="2.9" stroke-linecap="round" stroke-linejoin="round" opacity="0.36"/><polyline points="684,122 647,183 620,176 603,210 578,159" fill="none" stroke="#560bad" stroke-width="4.3" stroke-linecap="round" stroke-linejoin="round" opacity="0.62"/><polyline points="573,634 598,697 592,708 617,754 553,716 570,725 583,781 568,760" fill="none" stroke="#480ca8" stroke-width="5.8" stroke-linecap="round" stroke-linejoin="round" opacity="0.54"/><circle cx="613.1201594528171" cy="319.8216752280356" r="4.817184489522958" fill="#3f37c9" opacity="0.8"/><circle cx="599.58211423003" cy="759.3481672457283" r="4.429981631495992" fill="#3f37c9" opacity="0.8"/><circle cx="233.08285972977822" cy="148.086683187395" r="3.1081567464379907" fill="#f72585" opacity="0.8"/>
<text x="400" y="780" text-anchor="middle" fill="#334" font-family="monospace" font-size="10">organism:8d179ea50eb4 | squiggles</text>
</svg>