<svg xmlns="http://www.w3.org/2000/svg" viewBox="0 0 800 800">
<rect width="800" height="800" fill="#0a0e1a"/>
<rect x="625.7768232614917" y="497.7143922876206" width="33.11110908568111" height="33.11110908568111" fill="#7209b7" opacity="0.32" rx="2" transform="rotate(19 642.3323778043323 514.2699468304612)"/><rect x="138.45337334456215" y="688.8677062891419" width="23.41649658773006" height="23.41649658773006" fill="#b5179e" opacity="0.65" rx="3" transform="rotate(19 150.1616216384272 700.5759545830069)"/><rect x="465.32003508819406" y="429.0607794288167" width="32.00678974620969" height="32.00678974620969" fill="#560bad" opacity="0.58" rx="6" transform="rotate(26 481.3234299612989 445.0641743019216)"/><rect x="385.0853684692551" y="457.2960367367993" width="17.00758570504813" height="17.00758570504813" fill="#b5179e" opacity="0.35" rx="3" transform="rotate(34 393.58916132177916 465.79982958932334)"/><rect x="316.2993164415427" y="328.9820054242898" width="20.564401294309384" height="20.564401294309384" fill="#b5179e" opacity="0.79" rx="0" transform="rotate(32 326.5815170886974 339.2642060714445)"/><rect x="742.7625261632933" y="687.2515345170892" width="15.27675058819647" height="15.27675058819647" fill="#7209b7" opacity="0.63" rx="3" transform="rotate(36 750.4009014573915 694.8899098111874)"/><rect x="536.7364507964892" y="516.7844635573482" width="39.8798397188275" height="39.8798397188275" fill="#b5179e" opacity="0.83" rx="3" transform="rotate(26 556.6763706559029 536.724383416762)"/><rect x="212.2493863187449" y="254.288683176343" width="26.774101963304005" height="26.774101963304005" fill="#3f37c9" opacity="0.89" rx="6" transform="rotate(39 225.63643730039692 267.675734157995)"/><rect x="208.24443538170127" y="713.0908848900019" width="24.51695640303454" height="24.51695640303454" fill="#b5179e" opacity="0.61" rx="8" transform="rotate(24 220.50291358321854 725.3493630915192)"/><rect x="567.6105028990042" y="624.3862931185669" width="22.61696140675042" height="22.61696140675042" fill="#b5179e" opacity="0.69" rx="1" transform="rotate(34 578.9189836023795 635.6947738219421)"/><rect x="660.039688953569" y="386.56184485286" width="32.79954156702193" height="32.79954156702193" fill="#3f37c9" opacity="0.57" rx="8" transform="rotate(39 676.4394597370799 402.961615636371)"/><rect x="188.73304183938978" y="163.29320165502457" width="29.112971855047856" height="29.112971855047856" fill="#b5179e" opacity="0.74" rx="3" transform="rotate(30 203.28952776691372 177.8496875825485)"/><rect x="631.6900953312404" y="614.324405784093" width="24.43303548569849" height="24.43303548569849" fill="#560bad" opacity="0.90" rx="5" transform="rotate(32 643.9066130740896 626.5409235269422)"/><rect x="208.73410941501388" y="270.6830502153649" width="28.043379587612378" height="28.043379587612378" fill="#7209b7" opacity="0.48" rx="4" transform="rotate(38 222.75579920882006 284.70474000917113)"/><rect x="536.7146653485613" y="102.64124074637428" width="26.953913709650365" height="26.953913709650365" fill="#b5179e" opacity="0.64" rx="1" transform="rotate(15 550.1916222033865 116.11819760119945)"/><rect x="170.69886576966098" y="703.9420022258079" width="19.242279851463497" height="19.242279851463497" fill="#7209b7" opacity="0.50" rx="8" transform="rotate(19 180.32000569539272 713.5631421515396)"/><rect x="179.5636076694223" y="562.8320152612964" width="26.37300395181429" height="26.37300395181429" fill="#b5179e" opacity="0.68" rx="7" transform="rotate(42 192.75010964532945 576.0185172372036)"/><rect x="674.2102739320136" y="522.1756983914737" width="36.941318087002855" height="36.941318087002855" fill="#f72585" opacity="0.46" rx="5" transform="rotate(13 692.680932975515 540.6463574349751)"/><rect x="552.8392222376583" y="469.5405308752451" width="35.12009584050874" height="35.12009584050874" fill="#7209b7" opacity="0.63" rx="7" transform="rotate(32 570.3992701579127 487.1005787954995)"/><rect x="242.34565784801785" y="714.667050508038" width="21.26623022149699" height="21.26623022149699" fill="#3f37c9" opacity="0.40" rx="2" transform="rotate(14 252.97877295876634 725.3001656187864)"/><rect x="351.2405056775292" y="296.338528973473" width="29.24987211171938" height="29.24987211171938" fill="#560bad" opacity="0.55" rx="6" transform="rotate(27 365.8654417333889 310.96346502933267)"/><rect x="456.0422973810386" y="392.937224548931" width="25.117893090458765" height="25.117893090458765" fill="#7209b7" opacity="0.48" rx="0" transform="rotate(28 468.601243926268 405.4961710941604)"/><rect x="741.7079867998714" y="224.7584713880252" width="38.613760466861564" height="38.613760466861564" fill="#7209b7" opacity="0.50" rx="0" transform="rotate(22 761.0148670333022 244.065351621456)"/><rect x="70.51485544908257" y="438.4660358661349" width="33.15250870350102" height="33.15250870350102" fill="#560bad" opacity="0.84" rx="0" transform="rotate(28 87.09110980083308 455.0422902178854)"/><circle cx="144.11237245334183" cy="686.0828312593527" r="4.196035133892234" fill="#f72585" opacity="0.8"/><circle cx="613.0928959686797" cy="694.5492234203181" r="4.131892953075611" fill="#7209b7" opacity="0.8"/>
<text x="400" y="780" text-anchor="middle" fill="#334" font-family="monospace" font-size="10">organism:16c60f0a247f | grid</text>
</svg>