<svg xmlns="http://www.w3.org/2000/svg" viewBox="0 0 800 800">
<rect width="800" height="800" fill="#0a0e1a"/>
<polyline points="11,218 91,191 121,251 94,197 32,146 58,158 9,218 44,161" fill="none" stroke="#c77dff" stroke-width="3.6" stroke-linecap="round" stroke-linejoin="round" opacity="0.30"/><polyline points="497,363 435,375 488,390 563,439 533,405" fill="none" stroke="#e0aaff" stroke-width="3.1" stroke-linecap="round" stroke-linejoin="round" opacity="0.63"/><polyline points="445,-15 485,49 486,20 534,-28 527,35 524,23 448,-17 443,2" fill="none" stroke="#e0aaff" stroke-width="5.6" stroke-linecap="round" stroke-linejoin="round" opacity="0.67"/><polyline points="598,251 628,255 683,212 755,140" fill="none" stroke="#c77dff" stroke-width="4.7" stroke-linecap="round" stroke-linejoin="round" opacity="0.51"/><polyline points="623,334 684,358 607,431 579,400" fill="none" stroke="#7b2cbf" stroke-width="5.8" stroke-linecap="round" stroke-linejoin="round" opacity="0.60"/><polyline points="274,607 291,655 283,607 276,662 218,584 148,647 210,711 183,640" fill="none" stroke="#9d4edd" stroke-width="3.7" stroke-linecap="round" stroke-linejoin="round" opacity="0.69"/><polyline points="649,84 691,161 736,90 748,132 757,188 817,145 802,165" fill="none" stroke="#c77dff" stroke-width="3.5" stroke-linecap="round" stroke-linejoin="round" opacity="0.70"/><polyline points="120,787 87,782 151,830 103,874 78,859" fill="none" stroke="#5a189a" stroke-width="5.5" stroke-linecap="round" stroke-linejoin="round" opacity="0.72"/><polyline points="449,641 386,716 359,687 331,645 268,690 279,752" fill="none" stroke="#7b2cbf" stroke-width="4.5" stroke-linecap="round" stroke-linejoin="round" opacity="0.71"/><polyline points="396,308 378,295 327,293 335,371 350,365" fill="none" stroke="#c77dff" stroke-width="5.7" stroke-linecap="round" stroke-linejoin="round" opacity="0.69"/><polyline points="482,631 491,685 413,708 415,768 492,796 539,831" fill="none" stroke="#5a189a" stroke-width="5.7" stroke-linecap="round" stroke-linejoin="round" opacity="0.30"/><polyline points="69,697 19,662 13,702 28,706 -36,705 -67,626" fill="none" stroke="#7b2cbf" stroke-width="3.8" stroke-linecap="round" stroke-linejoin="round" opacity="0.67"/><circle cx="298.39347897296136" cy="349.7972660545255" r="2.1257372957119482" fill="#e0aaff" opacity="0.8"/><circle cx="757.2996337472254" cy="795.2158910192486" r="2.057696848384741" fill="#5a189a" opacity="0.8"/><circle cx="163.33496684508918" cy="76.7695418860809" r="5.88346854665891" fill="#5a189a" opacity="0.8"/><circle cx="117.13362638689162" cy="732.3587524220494" r="5.397114795250262" fill="#5a189a" opacity="0.8"/>
<text x="400" y="780" text-anchor="middle" fill="#334" font-family="monospace" font-size="10">organism:34fee0cba610 | squiggles</text>
</svg>