<svg xmlns="http://www.w3.org/2000/svg" viewBox="0 0 800 800">
<rect width="800" height="800" fill="#0a0e1a"/>
<rect x="644.1481842989286" y="381.03995144129533" width="35.88587033319048" height="35.88587033319048" fill="#ff006e" opacity="0.51" rx="2" transform="rotate(1 662.0911194655239 398.9828866078906)"/><rect x="100.90046836186153" y="668.0975682218481" width="15.621095192635654" height="15.621095192635654" fill="#00ffcc" opacity="0.47" rx="3" transform="rotate(43 108.71101595817936 675.9081158181659)"/><rect x="658.850167298048" y="654.7767797662942" width="17.868053676174597" height="17.868053676174597" fill="#ffbe0b" opacity="0.34" rx="8" transform="rotate(2 667.7841941361353 663.7108066043816)"/><rect x="216.0665130761058" y="326.4525571644667" width="15.33467219676139" height="15.33467219676139" fill="#3a86ff" opacity="0.77" rx="7" transform="rotate(44 223.7338491744865 334.1198932628474)"/><rect x="226.44713689442383" y="537.8611196059483" width="37.08777983615791" height="37.08777983615791" fill="#3a86ff" opacity="0.40" rx="4" transform="rotate(43 244.99102681250278 556.4050095240273)"/><rect x="110.77104473713523" y="193.70977134416424" width="27.96219721027789" height="27.96219721027789" fill="#ffbe0b" opacity="0.51" rx="5" transform="rotate(13 124.75214334227417 207.6908699493032)"/><rect x="650.8203908486598" y="503.58692006324867" width="15.524903778233465" height="15.524903778233465" fill="#ff006e" opacity="0.46" rx="2" transform="rotate(6 658.5828427377766 511.3493719523654)"/><rect x="106.2974877555638" y="216.4548097687851" width="22.644386287488597" height="22.644386287488597" fill="#ff006e" opacity="0.83" rx="2" transform="rotate(20 117.6196808993081 227.7770029125294)"/><rect x="295.49854280005206" y="696.8968759907272" width="21.622043142260807" height="21.622043142260807" fill="#ff006e" opacity="0.34" rx="6" transform="rotate(18 306.3095643711825 707.7078975618575)"/><rect x="182.84724392710757" y="369.17208885299823" width="27.71770529087167" height="27.71770529087167" fill="#ff006e" opacity="0.60" rx="5" transform="rotate(16 196.7060965725434 383.03094149843406)"/><rect x="547.6943370597761" y="393.1145403967014" width="23.376403510855347" height="23.376403510855347" fill="#ffbe0b" opacity="0.45" rx="1" transform="rotate(15 559.3825388152038 404.80274215212904)"/><rect x="566.9828596874617" y="490.7021752454888" width="16.42589233161212" height="16.42589233161212" fill="#3a86ff" opacity="0.83" rx="1" transform="rotate(7 575.1958058532678 498.9151214112948)"/><rect x="369.8787072341408" y="257.8719389289482" width="27.937947322027718" height="27.937947322027718" fill="#ffbe0b" opacity="0.57" rx="2" transform="rotate(8 383.84768089515467 271.8409125899621)"/><rect x="556.0035654157916" y="201.03975840147692" width="25.453128503093218" height="25.453128503093218" fill="#fb5607" opacity="0.62" rx="5" transform="rotate(44 568.7301296673382 213.76632265302354)"/><rect x="512.7457531718596" y="97.34120670645422" width="27.489604292900925" height="27.489604292900925" fill="#ff006e" opacity="0.72" rx="4" transform="rotate(6 526.49055531831 111.08600885290468)"/><rect x="91.26086662369937" y="490.85934997913887" width="20.431439281622517" height="20.431439281622517" fill="#fb5607" opacity="0.40" rx="5" transform="rotate(21 101.47658626451063 501.0750696199501)"/><rect x="416.2364727153673" y="514.6519133930449" width="21.583265767751108" height="21.583265767751108" fill="#fb5607" opacity="0.43" rx="5" transform="rotate(44 427.02810559924285 525.4435462769204)"/><rect x="609.8954855780252" y="493.7431889381848" width="29.53702145155803" height="29.53702145155803" fill="#fb5607" opacity="0.77" rx="0" transform="rotate(14 624.6639963038042 508.51169966396384)"/><rect x="671.1096665298369" y="635.861727824721" width="36.67754444082989" height="36.67754444082989" fill="#3a86ff" opacity="0.58" rx="1" transform="rotate(6 689.4484387502519 654.200500045136)"/><rect x="55.19043296734176" y="161.4759583974048" width="29.370196243171307" height="29.370196243171307" fill="#fb5607" opacity="0.54" rx="6" transform="rotate(20 69.87553108892742 176.16105651899045)"/><rect x="53.43955129006302" y="428.34898156186694" width="28.041505387439067" height="28.041505387439067" fill="#ff006e" opacity="0.83" rx="4" transform="rotate(6 67.46030398378255 442.3697342555865)"/><rect x="400.265211204507" y="450.90389801001703" width="20.570513517153216" height="20.570513517153216" fill="#fb5607" opacity="0.48" rx="2" transform="rotate(34 410.55046796308363 461.18915476859365)"/><rect x="621.7473140484518" y="291.6282919787235" width="15.185965102095057" height="15.185965102095057" fill="#3a86ff" opacity="0.68" rx="7" transform="rotate(14 629.3402965994993 299.22127452977105)"/><rect x="64.56787344951795" y="591.0628119949588" width="32.30140877947423" height="32.30140877947423" fill="#fb5607" opacity="0.65" rx="3" transform="rotate(40 80.71857783925506 607.2135163846959)"/><circle cx="304.2194398030058" cy="50.216363325913264" r="5.2717946175051935" fill="#ffbe0b" opacity="0.8"/><circle cx="99.0939691461552" cy="119.38622455172788" r="3.491646004774501" fill="#3a86ff" opacity="0.8"/><circle cx="394.363681585296" cy="619.0444526512232" r="5.884362341278644" fill="#ff006e" opacity="0.8"/><circle cx="762.9300267908525" cy="592.7613724700143" r="4.9254050007278245" fill="#ff006e" opacity="0.8"/>
<text x="400" y="780" text-anchor="middle" fill="#334" font-family="monospace" font-size="10">organism:d729b9db8106 | grid</text>
</svg>