<svg xmlns="http://www.w3.org/2000/svg" viewBox="0 0 800 800">
<rect width="800" height="800" fill="#0a0e1a"/>
<rect x="430.936915789981" y="558.6500326396059" width="30.961717280496458" height="30.961717280496458" fill="#b5179e" opacity="0.47" rx="1" transform="rotate(2 446.41777443022926 574.1308912798542)"/><rect x="749.2167734635358" y="731.3444939977338" width="27.83968842916419" height="27.83968842916419" fill="#7209b7" opacity="0.63" rx="4" transform="rotate(35 763.1366176781179 745.2643382123159)"/><rect x="487.3121491957843" y="283.0274303429019" width="36.55627634396095" height="36.55627634396095" fill="#b5179e" opacity="0.31" rx="6" transform="rotate(41 505.59028736776474 301.30556851488234)"/><rect x="500.4732794905274" y="125.12872148658026" width="28.370210574711905" height="28.370210574711905" fill="#3f37c9" opacity="0.45" rx="3" transform="rotate(14 514.6583847778834 139.31382677393623)"/><rect x="716.3788944659242" y="366.20230297374843" width="27.502482534241203" height="27.502482534241203" fill="#b5179e" opacity="0.40" rx="6" transform="rotate(19 730.1301357330448 379.953544240869)"/><rect x="96.71777145737255" y="699.6864453045" width="22.42431488516833" height="22.42431488516833" fill="#b5179e" opacity="0.80" rx="1" transform="rotate(1 107.9299288999567 710.8986027470842)"/><rect x="175.75958973162045" y="607.3657944770085" width="36.81149489998121" height="36.81149489998121" fill="#7209b7" opacity="0.40" rx="2" transform="rotate(40 194.16533718161105 625.7715419269991)"/><rect x="468.4124217824498" y="113.03388650235092" width="23.44072057402881" height="23.44072057402881" fill="#7209b7" opacity="0.45" rx="7" transform="rotate(3 480.1327820694642 124.75424678936533)"/><rect x="364.1006140210704" y="630.8501092392871" width="34.50548404192893" height="34.50548404192893" fill="#b5179e" opacity="0.76" rx="7" transform="rotate(36 381.3533560420349 648.1028512602516)"/><rect x="312.14323089889245" y="180.07021850555384" width="28.45903269962629" height="28.45903269962629" fill="#7209b7" opacity="0.68" rx="0" transform="rotate(24 326.3727472487056 194.29973485536698)"/><rect x="90.8327131863656" y="495.4003985372584" width="38.762653387950806" height="38.762653387950806" fill="#560bad" opacity="0.66" rx="4" transform="rotate(17 110.214039880341 514.7817252312338)"/><rect x="88.02938748711892" y="236.69069003829497" width="29.920806342306758" height="29.920806342306758" fill="#3f37c9" opacity="0.48" rx="4" transform="rotate(34 102.9897906582723 251.65109320944836)"/><rect x="676.8541337792918" y="216.98735731365218" width="23.525730848664708" height="23.525730848664708" fill="#560bad" opacity="0.54" rx="1" transform="rotate(36 688.6169992036242 228.75022273798453)"/><rect x="545.0711427991988" y="335.13363080768977" width="38.05607555111053" height="38.05607555111053" fill="#560bad" opacity="0.84" rx="6" transform="rotate(26 564.0991805747541 354.16166858324505)"/><rect x="97.89282622210004" y="378.430285584684" width="22.352102208387468" height="22.352102208387468" fill="#7209b7" opacity="0.37" rx="7" transform="rotate(17 109.06887732629377 389.6063366888777)"/><circle cx="789.7826143879148" cy="368.0103212320134" r="5.107592254142789" fill="#7209b7" opacity="0.8"/><circle cx="525.6468585697188" cy="626.7687057459761" r="3.567588815402175" fill="#7209b7" opacity="0.8"/>
<text x="400" y="780" text-anchor="middle" fill="#334" font-family="monospace" font-size="10">organism:b2a904fb22e7 | grid</text>
</svg>