<svg xmlns="http://www.w3.org/2000/svg" viewBox="0 0 800 800">
<rect width="800" height="800" fill="#0a0e1a"/>
<polyline points="379,558 457,538 395,617 435,618" fill="none" stroke="#480ca8" stroke-width="3.1" stroke-linecap="round" stroke-linejoin="round" opacity="0.75"/><polyline points="763,219 798,164 768,226 735,210 737,240" fill="none" stroke="#7209b7" stroke-width="3.9" stroke-linecap="round" stroke-linejoin="round" opacity="0.79"/><polyline points="661,424 705,397 778,454 851,419 801,401" fill="none" stroke="#f72585" stroke-width="2.9" stroke-linecap="round" stroke-linejoin="round" opacity="0.48"/><polyline points="372,642 409,705 447,765 368,694" fill="none" stroke="#b5179e" stroke-width="3.9" stroke-linecap="round" stroke-linejoin="round" opacity="0.62"/><polyline points="602,168 546,105 532,41 611,72 637,38 596,27 543,12" fill="none" stroke="#7209b7" stroke-width="5.0" stroke-linecap="round" stroke-linejoin="round" opacity="0.51"/><polyline points="219,551 242,531 295,508 326,531 387,492 418,567" fill="none" stroke="#560bad" stroke-width="3.2" stroke-linecap="round" stroke-linejoin="round" opacity="0.35"/><polyline points="480,499 403,517 421,483 419,407 391,335" fill="none" stroke="#f72585" stroke-width="2.1" stroke-linecap="round" stroke-linejoin="round" opacity="0.61"/><polyline points="536,419 539,490 475,455 433,396 357,322 366,320" fill="none" stroke="#480ca8" stroke-width="4.9" stroke-linecap="round" stroke-linejoin="round" opacity="0.84"/><polyline points="664,680 700,742 776,812 777,836 706,826 681,771" fill="none" stroke="#b5179e" stroke-width="4.1" stroke-linecap="round" stroke-linejoin="round" opacity="0.88"/><polyline points="246,114 231,51 297,65 328,134" fill="none" stroke="#b5179e" stroke-width="2.7" stroke-linecap="round" stroke-linejoin="round" opacity="0.83"/><polyline points="101,672 122,685 43,717 -27,690 5,640 -23,684 -61,612 14,553" fill="none" stroke="#f72585" stroke-width="2.0" stroke-linecap="round" stroke-linejoin="round" opacity="0.72"/><polyline points="184,479 201,497 132,513 52,536 -1,563 29,511 55,507" fill="none" stroke="#b5179e" stroke-width="2.3" stroke-linecap="round" stroke-linejoin="round" opacity="0.69"/><polyline points="420,230 427,176 376,202 388,131 403,115" fill="none" stroke="#f72585" stroke-width="5.9" stroke-linecap="round" stroke-linejoin="round" opacity="0.36"/><polyline points="58,756 36,744 107,796 111,733 135,805 57,726" fill="none" stroke="#b5179e" stroke-width="4.4" stroke-linecap="round" stroke-linejoin="round" opacity="0.50"/><polyline points="600,406 664,424 638,347 577,278 654,353" fill="none" stroke="#480ca8" stroke-width="2.3" stroke-linecap="round" stroke-linejoin="round" opacity="0.38"/><polyline points="277,451 283,457 203,457 202,480 200,415 177,346" fill="none" stroke="#560bad" stroke-width="5.8" stroke-linecap="round" stroke-linejoin="round" opacity="0.37"/><polyline points="159,771 100,706 25,730 -0,726" fill="none" stroke="#560bad" stroke-width="2.5" stroke-linecap="round" stroke-linejoin="round" opacity="0.35"/><polyline points="274,796 304,862 259,911 244,912 308,907" fill="none" stroke="#f72585" stroke-width="5.6" stroke-linecap="round" stroke-linejoin="round" opacity="0.33"/><polyline points="283,136 327,202 373,261 386,192 376,237 431,216" fill="none" stroke="#560bad" stroke-width="5.6" stroke-linecap="round" stroke-linejoin="round" opacity="0.69"/><circle cx="664.6232187874251" cy="372.42028574465047" r="5.154891212301019" fill="#f72585" opacity="0.8"/><circle cx="107.0488944398596" cy="719.7730647414888" r="5.991416564920697" fill="#7209b7" opacity="0.8"/><circle cx="387.42235465218823" cy="448.41205050309225" r="5.477923471615208" fill="#480ca8" opacity="0.8"/><circle cx="507.5755701244134" cy="246.0941773317403" r="4.751841717769059" fill="#560bad" opacity="0.8"/><circle cx="798.8920179229161" cy="452.83123551347666" r="5.743018390257877" fill="#480ca8" opacity="0.8"/>
<text x="400" y="780" text-anchor="middle" fill="#334" font-family="monospace" font-size="10">organism:794ee4812def | squiggles</text>
</svg>