<svg xmlns="http://www.w3.org/2000/svg" viewBox="0 0 800 800">
<rect width="800" height="800" fill="#0a0e1a"/>
<polygon points="197.70208007873762,494.89768324486806 154.15235989905233,569.9834076926013 241.25180025842292,569.9834076926013" fill="#ff4d61" opacity="0.32" transform="rotate(8 197.70208007873762 544.9548328766903)"/><polygon points="658.8935515024775,374.7933415524226 583.8417922266391,504.19292651076466 733.945310778316,504.19292651076466" fill="#1f73ff" opacity="0.52" transform="rotate(80 658.8935515024775 461.05973152465066)"/><polygon points="428.7069108154887,520.9317618301582 358.44572964015407,642.0717293738386 498.9680919908233,642.0717293738386" fill="#ff4d61" opacity="0.45" transform="rotate(198 428.7069108154887 601.6917401926117)"/><polygon points="450.89940382112104,395.80080126581424 413.71686076845873,459.908634115232 488.08194687378335,459.908634115232" fill="#a855f7" opacity="0.34" transform="rotate(182 450.89940382112104 438.53935649875945)"/><polygon points="364.59649162823115,438.269545436508 283.3741742065869,578.3080237496878 445.8188090498754,578.3080237496878" fill="#0cbb76" opacity="0.87" transform="rotate(343 364.59649162823115 531.6285309786279)"/><polygon points="217.51146234067195,133.3158610253937 175.2030615727178,206.26137959083195 259.8198631086261,206.26137959083195" fill="#ffbf00" opacity="0.40" transform="rotate(132 217.51146234067195 181.94620673568588)"/><polygon points="442.2750034547522,364.20719403591625 401.18278015065005,435.05585490505797 483.3672267588544,435.05585490505797" fill="#a855f7" opacity="0.59" transform="rotate(171 442.2750034547522 411.43963461534406)"/><polygon points="81.97524933811894,124.63993365348516 53.479997927202334,173.76967746541035 110.47050074903555,173.76967746541035" fill="#1f73ff" opacity="0.46" transform="rotate(40 81.97524933811894 157.39309619476862)"/><polygon points="359.36522678902503,449.93637164741165 326.4117755504362,506.75266688635793 392.3186780276139,506.75266688635793" fill="#ff4d61" opacity="0.54" transform="rotate(103 359.36522678902503 487.81390180670917)"/><polygon points="478.5425288925493,607.9460553668686 450.28732193103775,656.6619294384402 506.7977358540608,656.6619294384402" fill="#ff8c00" opacity="0.74" transform="rotate(78 478.5425288925493 640.4233047479163)"/><circle cx="329.7253119204023" cy="537.7194209022407" r="3.9201110591064587" fill="#ff4d61" opacity="0.8"/><circle cx="451.96767059882825" cy="490.55066458275707" r="4.145095119382947" fill="#ff4d61" opacity="0.8"/><circle cx="34.932575456894185" cy="117.50993813919254" r="5.703593141752091" fill="#ff8c00" opacity="0.8"/><circle cx="595.9588854747046" cy="180.16578503430355" r="3.1950181935150077" fill="#0cbb76" opacity="0.8"/>
<text x="400" y="780" text-anchor="middle" fill="#334" font-family="monospace" font-size="10">organism:01b0ef9e18a6 | triangles</text>
</svg>