<svg xmlns="http://www.w3.org/2000/svg" viewBox="0 0 800 800">
<rect width="800" height="800" fill="#0a0e1a"/>
<polygon points="675.7003295704621,419.24780939621144 610.6586588316613,531.3886210148336 740.742000309263,531.3886210148336" fill="#7b2cbf" opacity="0.34" transform="rotate(134 675.7003295704621 494.00835047529284)"/><polygon points="563.4374789000314,169.98973554187603 531.4239759872504,225.18543021908465 595.4509818128123,225.18543021908465" fill="#e0aaff" opacity="0.47" transform="rotate(103 563.4374789000314 206.78686532668178)"/><polygon points="638.7506853382512,413.0020977351899 560.5943001996056,547.7544859052684 716.9070704768967,547.7544859052684" fill="#7b2cbf" opacity="0.82" transform="rotate(170 638.7506853382512 502.83702318190893)"/><polygon points="394.5936170786247,106.2834483783499 344.44224443027275,192.75133225481875 444.7449897269766,192.75133225481875" fill="#e0aaff" opacity="0.30" transform="rotate(193 394.5936170786247 163.9287042959958)"/><polygon points="192.05395467477726,644.2025278882255 111.5615631704931,782.9825132404396 272.5463461790614,782.9825132404396" fill="#e0aaff" opacity="0.61" transform="rotate(108 192.05395467477726 736.7225181230349)"/><polygon points="536.5666668052561,257.2654244011554 503.0820278489434,314.997560532729 570.0513057615688,314.997560532729" fill="#7b2cbf" opacity="0.49" transform="rotate(26 536.5666668052561 295.7535151555378)"/><polygon points="454.20997107440826,313.15391647464094 411.83224592968895,386.21895982760526 496.58769621912757,386.21895982760526" fill="#5a189a" opacity="0.36" transform="rotate(290 454.20997107440826 361.86394537661715)"/><polygon points="484.51443976687676,473.66148565249136 411.8931000282035,598.8706920984798 557.1357795055501,598.8706920984798" fill="#c77dff" opacity="0.37" transform="rotate(190 484.51443976687676 557.134289949817)"/><polygon points="99.2709424970042,290.12704980054696 71.04651800239178,338.789850653327 127.49536699161662,338.789850653327" fill="#c77dff" opacity="0.49" transform="rotate(123 99.2709424970042 322.56891703573365)"/><polygon points="613.8342758819927,66.37232475041219 552.9219263111721,171.39361711389594 674.7466254528132,171.39361711389594" fill="#7b2cbf" opacity="0.63" transform="rotate(3 613.8342758819927 136.38651965940136)"/><polygon points="362.13959013683603,349.0979199676389 338.2604883522028,390.2687851135583 386.01869192146927,390.2687851135583" fill="#5a189a" opacity="0.71" transform="rotate(69 362.13959013683603 376.5451633982518)"/><circle cx="450.28656343272183" cy="624.7023775344079" r="3.3595719355213878" fill="#c77dff" opacity="0.8"/><circle cx="498.4457336879782" cy="77.6211552794809" r="5.539585780110551" fill="#c77dff" opacity="0.8"/><circle cx="775.784257509949" cy="505.0621342943927" r="4.868253674938975" fill="#e0aaff" opacity="0.8"/><circle cx="315.7740702613435" cy="167.55045578870406" r="4.933515033095775" fill="#9d4edd" opacity="0.8"/>
<text x="400" y="780" text-anchor="middle" fill="#334" font-family="monospace" font-size="10">organism:24f7ff1298a9 | triangles</text>
</svg>