<svg xmlns="http://www.w3.org/2000/svg" viewBox="0 0 800 800">
<rect width="800" height="800" fill="#0a0e1a"/>
<rect x="372.40897174281673" y="264.20054117102836" width="18.61608898645218" height="18.61608898645218" fill="#9d4edd" opacity="0.72" rx="3" transform="rotate(9 381.7170162360428 273.50858566425444)"/><rect x="727.2693007151723" y="177.403700647836" width="20.3773222276608" height="20.3773222276608" fill="#7b2cbf" opacity="0.81" rx="4" transform="rotate(41 737.4579618290028 187.59236176166638)"/><rect x="194.18542527975566" y="670.8166180636332" width="33.53613381384105" height="33.53613381384105" fill="#c77dff" opacity="0.77" rx="6" transform="rotate(40 210.9534921866762 687.5846849705538)"/><rect x="212.13489690659887" y="289.49500441745454" width="21.77474487466095" height="21.77474487466095" fill="#e0aaff" opacity="0.37" rx="4" transform="rotate(18 223.02226934392934 300.38237685478504)"/><rect x="357.1756324701234" y="610.2780821289473" width="30.5143533184771" height="30.5143533184771" fill="#9d4edd" opacity="0.53" rx="4" transform="rotate(19 372.43280912936194 625.5352587881858)"/><rect x="311.3697764413712" y="79.04875656147293" width="19.134513430461645" height="19.134513430461645" fill="#5a189a" opacity="0.30" rx="0" transform="rotate(37 320.937033156602 88.61601327670375)"/><rect x="363.31064629314204" y="468.9732140929334" width="39.70507350912396" height="39.70507350912396" fill="#c77dff" opacity="0.90" rx="8" transform="rotate(17 383.163183047704 488.8257508474954)"/><rect x="143.42522622007834" y="735.5655526626693" width="24.56248260887138" height="24.56248260887138" fill="#c77dff" opacity="0.49" rx="4" transform="rotate(10 155.70646752451404 747.846793967105)"/><rect x="406.76650605864353" y="150.87809657337252" width="23.003279466780043" height="23.003279466780043" fill="#7b2cbf" opacity="0.80" rx="3" transform="rotate(32 418.2681457920336 162.37973630676254)"/><rect x="267.5043965518098" y="573.4448177772782" width="22.62767716069047" height="22.62767716069047" fill="#7b2cbf" opacity="0.86" rx="3" transform="rotate(2 278.81823513215505 584.7586563576234)"/><rect x="93.69724875725132" y="322.3230298061473" width="22.566774276678466" height="22.566774276678466" fill="#7b2cbf" opacity="0.34" rx="1" transform="rotate(35 104.98063589559055 333.6064169444865)"/><rect x="621.5929671559218" y="282.5005333686485" width="16.60644525303842" height="16.60644525303842" fill="#7b2cbf" opacity="0.36" rx="2" transform="rotate(27 629.896189782441 290.8037559951677)"/><rect x="722.6007735858983" y="523.169269650215" width="36.84823312892421" height="36.84823312892421" fill="#c77dff" opacity="0.84" rx="2" transform="rotate(33 741.0248901503604 541.5933862146771)"/><rect x="230.77741641619005" y="78.36554424758084" width="33.632474431456444" height="33.632474431456444" fill="#e0aaff" opacity="0.71" rx="6" transform="rotate(28 247.59365363191827 95.18178146330906)"/><rect x="423.88069109033034" y="508.0150338140123" width="25.65430420143859" height="25.65430420143859" fill="#9d4edd" opacity="0.69" rx="6" transform="rotate(35 436.7078431910496 520.8421859147317)"/><rect x="207.0240695979319" y="702.7280074615022" width="22.262043998622577" height="22.262043998622577" fill="#9d4edd" opacity="0.61" rx="3" transform="rotate(1 218.1550915972432 713.8590294608135)"/><rect x="145.64454626075542" y="158.21308176781983" width="24.067044706218006" height="24.067044706218006" fill="#7b2cbf" opacity="0.84" rx="3" transform="rotate(39 157.6780686138644 170.24660412092882)"/><rect x="193.39067274768814" y="646.5130962617459" width="23.119033992448657" height="23.119033992448657" fill="#5a189a" opacity="0.74" rx="4" transform="rotate(35 204.95018974391246 658.0726132579703)"/><rect x="395.27966779005044" y="682.0953469782875" width="31.285652663604086" height="31.285652663604086" fill="#9d4edd" opacity="0.81" rx="0" transform="rotate(12 410.9224941218525 697.7381733100896)"/><circle cx="234.40048397553798" cy="799.6404705229953" r="2.750827083228079" fill="#7b2cbf" opacity="0.8"/><circle cx="7.677594691255951" cy="588.7299379907585" r="5.96538985491949" fill="#9d4edd" opacity="0.8"/><circle cx="58.68451229273832" cy="654.7473568358565" r="2.5815033436861223" fill="#9d4edd" opacity="0.8"/><circle cx="288.40858992497766" cy="183.67623380246218" r="3.2620950756442655" fill="#9d4edd" opacity="0.8"/>
<text x="400" y="780" text-anchor="middle" fill="#334" font-family="monospace" font-size="10">organism:c66775248074 | grid</text>
</svg>