<svg xmlns="http://www.w3.org/2000/svg" viewBox="0 0 800 800">
<rect width="800" height="800" fill="#0a0e1a"/>
<polygon points="348.9808115679504,220.4032771167782 266.9934332428591,361.7608259531425 430.9681898930417,361.7608259531425" fill="#480ca8" opacity="0.79" transform="rotate(218 348.9808115679504 314.6416430076877)"/><polygon points="147.14656825765337,92.38115007982117 63.9222448474131,235.8713628560975 230.37089166789366,235.8713628560975" fill="#f72585" opacity="0.85" transform="rotate(78 147.14656825765337 188.04129193067206)"/><polygon points="76.92546218092676,212.4375551958133 -1.3385251690812794,347.3754644199651 155.18944953093478,347.3754644199651" fill="#7209b7" opacity="0.33" transform="rotate(48 76.92546218092676 302.39616134524783)"/><polygon points="602.9920102319975,655.1794791246311 573.444404416391,706.1236270825734 632.539616047604,706.1236270825734" fill="#f72585" opacity="0.59" transform="rotate(97 602.9920102319975 689.142244429926)"/><polygon points="117.40371262465634,596.3269232993637 62.19240080064538,691.5188402373136 172.6150244486673,691.5188402373136" fill="#480ca8" opacity="0.48" transform="rotate(342 117.40371262465634 659.788201257997)"/><polygon points="335.8914975438675,122.52344620135385 316.944334731163,155.19096829222372 354.838660356572,155.19096829222372" fill="#480ca8" opacity="0.67" transform="rotate(333 335.8914975438675 144.30179426193376)"/><polygon points="116.32453675338898,264.7159085613679 80.33588837827864,326.7653023115581 152.31318512849933,326.7653023115581" fill="#b5179e" opacity="0.44" transform="rotate(314 116.32453675338898 306.0821710614947)"/><polygon points="612.9495938880017,339.17450487430176 543.5512354449812,458.8268470174405 682.3479523310222,458.8268470174405" fill="#560bad" opacity="0.79" transform="rotate(55 612.9495938880017 418.9427329697276)"/><polygon points="350.1684564674927,-23.533883414205555 275.96212397140437,104.40806916525709 424.37478896358107,104.40806916525709" fill="#3f37c9" opacity="0.88" transform="rotate(348 350.1684564674927 61.76075163876954)"/><polygon points="108.72230443907603,439.80091185874255 43.711521946080794,551.8884678811481 173.73308693207127,551.8884678811481" fill="#3f37c9" opacity="0.42" transform="rotate(265 108.72230443907603 514.5259492070129)"/><polygon points="423.5490388164813,190.11503787699291 350.5802042101704,315.92337340511517 496.5178734227922,315.92337340511517" fill="#560bad" opacity="0.45" transform="rotate(346 423.5490388164813 273.98726156240775)"/><polygon points="436.8542393632905,369.2651804213165 386.1330285231238,456.7155439388452 487.5754502034572,456.7155439388452" fill="#3f37c9" opacity="0.56" transform="rotate(139 436.8542393632905 427.56542276633564)"/><polygon points="138.5121567294509,150.295008208798 57.10391763162981,290.65404113607576 219.920395827272,290.65404113607576" fill="#7209b7" opacity="0.40" transform="rotate(350 138.5121567294509 243.86769682698318)"/><polygon points="270.24271225932523,-21.879834336003242 185.20464093330406,124.73753001920566 355.2807835853464,124.73753001920566" fill="#480ca8" opacity="0.71" transform="rotate(357 270.24271225932523 75.86507523413603)"/><polygon points="267.4122726284361,362.8131812362724 210.48558760165795,460.96263817899325 324.3389576552142,460.96263817899325" fill="#560bad" opacity="0.83" transform="rotate(135 267.4122726284361 428.2461525314196)"/><polygon points="178.5545016798044,310.98759423031674 134.87760832986413,386.2925827646965 222.23139502974465,386.2925827646965" fill="#b5179e" opacity="0.90" transform="rotate(216 178.5545016798044 361.19091991990325)"/><polygon points="99.68502556351307,79.38684853810015 31.42966883476541,197.06849807042371 167.94038229226072,197.06849807042371" fill="#480ca8" opacity="0.53" transform="rotate(24 99.68502556351307 157.8412815596492)"/><polygon points="408.55205980861956,322.0078897314828 338.5453196032308,442.7091659476704 478.55880001400834,442.7091659476704" fill="#560bad" opacity="0.66" transform="rotate(216 408.55205980861956 402.4754072089412)"/><polygon points="80.11413939264305,370.72961101610247 3.435787580584588,502.93366586447917 156.79249120470152,502.93366586447917" fill="#480ca8" opacity="0.51" transform="rotate(41 80.11413939264305 458.8656475816869)"/><polygon points="550.9266298634234,617.6749003194154 477.4921818668768,744.2860175548406 624.3610778599699,744.2860175548406" fill="#b5179e" opacity="0.77" transform="rotate(286 550.9266298634234 702.0823118096988)"/><polygon points="250.9904440334135,332.990396165417 169.1075466235335,474.1678054927963 332.8733414432935,474.1678054927963" fill="#f72585" opacity="0.37" transform="rotate(109 250.9904440334135 427.1086690503365)"/><polygon points="261.10291036890254,323.62329606227775 181.78860478484188,460.37209879341674 340.4172159529632,460.37209879341674" fill="#480ca8" opacity="0.61" transform="rotate(59 261.10291036890254 414.78916454970374)"/><polygon points="548.8458404004484,702.3838519957363 517.7817030996598,755.9427094108892 579.909977701237,755.9427094108892" fill="#480ca8" opacity="0.68" transform="rotate(218 548.8458404004484 738.0897569391716)"/><circle cx="714.5579748225765" cy="443.96696013642867" r="2.359183542937746" fill="#560bad" opacity="0.8"/><circle cx="212.8668733640507" cy="765.9159485847399" r="3.9607571595446243" fill="#7209b7" opacity="0.8"/>
<text x="400" y="780" text-anchor="middle" fill="#334" font-family="monospace" font-size="10">organism:13d1aa8ddd9d | triangles</text>
</svg>