<svg xmlns="http://www.w3.org/2000/svg" viewBox="0 0 800 800">
<rect width="800" height="800" fill="#0a0e1a"/>
<polygon points="437.6365804206372,91.61649382477304 376.56788631119366,196.90734573760673 498.7052745300807,196.90734573760673" fill="#ff8c00" opacity="0.75" transform="rotate(4 437.6365804206372 161.8103950999955)"/><polygon points="711.2491123820358,398.7882469706128 682.2423836941002,448.7998481567088 740.2558410699714,448.7998481567088" fill="#0cbb76" opacity="0.67" transform="rotate(16 711.2491123820358 432.1293144280101)"/><polygon points="550.2947746868348,633.3418684833798 465.645531621467,779.288839285738 634.9440177522026,779.288839285738" fill="#a855f7" opacity="0.33" transform="rotate(20 550.2947746868348 730.6398490182853)"/><polygon points="555.0502798116257,531.245058460364 513.0020569713713,603.7419943918372 597.0985026518802,603.7419943918372" fill="#ffbf00" opacity="0.79" transform="rotate(321 555.0502798116257 579.5763490813462)"/><polygon points="526.4299099567311,401.0301357287792 450.75110550938496,531.5108330517899 602.1087144040772,531.5108330517899" fill="#ff8c00" opacity="0.76" transform="rotate(1 526.4299099567311 488.01726727745296)"/><polygon points="662.9111185639513,548.1512049549133 628.2137013674887,607.9743380522625 697.6085357604138,607.9743380522625" fill="#ff4d61" opacity="0.48" transform="rotate(7 662.9111185639513 588.0332936864794)"/><polygon points="656.1562309708603,177.06806375335952 590.6494053922518,290.01086647509834 721.6630565494688,290.01086647509834" fill="#0cbb76" opacity="0.47" transform="rotate(88 656.1562309708603 252.36326556785207)"/><polygon points="180.36498597925888,595.9997207397753 157.9008667139501,634.7309608523766 202.82910524456764,634.7309608523766" fill="#ffbf00" opacity="0.54" transform="rotate(255 180.36498597925888 621.8205474815095)"/><polygon points="67.68890582669587,564.7782841035124 48.23854475388407,598.3133894014638 87.13926689950767,598.3133894014638" fill="#a855f7" opacity="0.30" transform="rotate(98 67.68890582669587 587.1350209688134)"/><polygon points="576.2865582040005,44.1693442032789 519.7318930451091,141.6773875806777 632.8412233628918,141.6773875806777" fill="#0cbb76" opacity="0.69" transform="rotate(159 576.2865582040005 109.17470645487809)"/><polygon points="455.97029221285976,62.202058649512864 436.97805773170415,94.94729051357422 474.96252669401537,94.94729051357422" fill="#ff4d61" opacity="0.41" transform="rotate(137 455.97029221285976 84.03221322555376)"/><polygon points="340.9060121239437,71.71079374425403 276.6483716904783,182.49982897436678 405.1636525574091,182.49982897436678" fill="#0cbb76" opacity="0.41" transform="rotate(227 340.9060121239437 145.5701505643292)"/><polygon points="723.3984339925702,155.91228996533528 687.1304888147369,218.44322992711687 759.6663791704035,218.44322992711687" fill="#a855f7" opacity="0.39" transform="rotate(244 723.3984339925702 197.59958327318967)"/><polygon points="271.4216646265546,229.91430448439144 187.69524289367484,374.2702040238393 355.1480863594344,374.2702040238393" fill="#1f73ff" opacity="0.66" transform="rotate(215 271.4216646265546 326.15157084402335)"/><polygon points="348.2607205324352,359.82582266036343 265.81794498995043,501.96853911292334 430.70349607491994,501.96853911292334" fill="#ff4d61" opacity="0.76" transform="rotate(279 348.2607205324352 454.5876336287367)"/><circle cx="175.76465180097028" cy="106.96043603862284" r="2.4943184957843987" fill="#ffbf00" opacity="0.8"/><circle cx="636.1068496200922" cy="480.20866333533434" r="4.063746374472786" fill="#0cbb76" opacity="0.8"/><circle cx="158.39650596000655" cy="59.16633638013575" r="2.6608877369059" fill="#ff4d61" opacity="0.8"/><circle cx="412.50581035719966" cy="56.92558741583529" r="5.367792251974674" fill="#0cbb76" opacity="0.8"/>
<text x="400" y="780" text-anchor="middle" fill="#334" font-family="monospace" font-size="10">organism:0a5f4b45d831 | triangles</text>
</svg>