<svg xmlns="http://www.w3.org/2000/svg" viewBox="0 0 800 800">
<rect width="800" height="800" fill="#0a0e1a"/>
<polygon points="360.00570258178567,-11.771223471355981 288.8074686776688,110.98435222539723 431.20393648590255,110.98435222539723" fill="#f72585" opacity="0.40" transform="rotate(31 360.00570258178567 70.06582699314616)"/><polygon points="480.8484322913469,293.7364310179517 456.4825654727368,335.7465462224519 505.21429910995704,335.7465462224519" fill="#560bad" opacity="0.50" transform="rotate(359 480.8484322913469 321.7431744876185)"/><polygon points="99.78737023690896,701.4676058499151 67.50272116017138,757.1307939132558 132.07201931364654,757.1307939132558" fill="#7209b7" opacity="0.47" transform="rotate(208 99.78737023690896 738.5763978921423)"/><polygon points="166.09520348335727,-30.562601178845938 83.96710959830668,111.03756069193095 248.22329736840786,111.03756069193095" fill="#3f37c9" opacity="0.78" transform="rotate(143 166.09520348335727 63.83750673500532)"/><polygon points="367.1415997369593,52.91336904060002 321.62329622639464,131.39320267950458 412.6599032475239,131.39320267950458" fill="#480ca8" opacity="0.49" transform="rotate(64 367.1415997369593 105.23325813320307)"/><polygon points="526.2260602408232,543.8984894034581 441.5733508590425,689.851436613425 610.878769622604,689.851436613425" fill="#480ca8" opacity="0.53" transform="rotate(263 526.2260602408232 641.2004542101027)"/><polygon points="288.31822629323335,581.0854229773287 257.84198583280886,633.6306651504744 318.79446675365784,633.6306651504744" fill="#7209b7" opacity="0.59" transform="rotate(148 288.31822629323335 616.1155844260925)"/><polygon points="665.918171978352,360.3611702836853 645.9213660885213,394.8384218178762 685.9149778681827,394.8384218178762" fill="#f72585" opacity="0.63" transform="rotate(113 665.918171978352 383.3460046398126)"/><polygon points="72.13789801515054,495.3061617600787 -4.177128001969862,626.8837928240794 148.45292403227094,626.8837928240794" fill="#3f37c9" opacity="0.71" transform="rotate(235 72.13789801515054 583.0245824694125)"/><polygon points="671.6623462369727,452.20992778197774 603.1184178244212,570.3891147001699 740.2062746495242,570.3891147001699" fill="#7209b7" opacity="0.63" transform="rotate(97 671.6623462369727 530.9960523941058)"/><polygon points="320.913085845626,462.54467020440427 277.9083263121625,536.6908073310653 363.91784537908944,536.6908073310653" fill="#7209b7" opacity="0.36" transform="rotate(251 320.913085845626 511.975428288845)"/><polygon points="628.8832811003033,348.7231335925984 587.960924743686,419.2789204143525 669.8056374569206,419.2789204143525" fill="#3f37c9" opacity="0.47" transform="rotate(297 628.8832811003033 395.76032480710114)"/><polygon points="639.3281254954019,96.53708633462944 570.8363077053598,214.6264273519435 707.819943285444,214.6264273519435" fill="#560bad" opacity="0.78" transform="rotate(254 639.3281254954019 175.26331367950547)"/><polygon points="443.11033728894614,560.0115866792969 419.4334467733748,600.833811706144 466.7872278045175,600.833811706144" fill="#7209b7" opacity="0.65" transform="rotate(26 443.11033728894614 587.2264033638617)"/><polygon points="290.4060903625105,505.86920651254496 208.9024784439598,646.3926753376323 371.9097022810612,646.3926753376323" fill="#480ca8" opacity="0.42" transform="rotate(302 290.4060903625105 599.5515190626032)"/><polygon points="223.23548915045356,718.7692961932645 201.26280004743785,756.6532429226019 245.20817825346927,756.6532429226019" fill="#b5179e" opacity="0.67" transform="rotate(269 223.23548915045356 744.0252606794894)"/><circle cx="677.0599317980211" cy="130.35851056942587" r="3.3621023412747544" fill="#3f37c9" opacity="0.8"/><circle cx="628.8641346515587" cy="95.66730499262653" r="2.9110765120632327" fill="#480ca8" opacity="0.8"/><circle cx="559.7258137815988" cy="87.13340601720373" r="2.0463894196224643" fill="#b5179e" opacity="0.8"/><circle cx="574.2960159100546" cy="321.2154954867917" r="3.9509061236485814" fill="#b5179e" opacity="0.8"/>
<text x="400" y="780" text-anchor="middle" fill="#334" font-family="monospace" font-size="10">organism:361a5a2834b1 | triangles</text>
</svg>