<svg xmlns="http://www.w3.org/2000/svg" viewBox="0 0 800 800">
<rect width="800" height="800" fill="#0a0e1a"/>
<polygon points="307,220 333,262 381,274 349,311 352,360 307,342 261,360 265,311 233,274 281,262" fill="#560bad" opacity="0.44"/><polygon points="219,599 231,637 271,629 244,659 271,689 231,681 219,719 206,681 167,689 193,659 167,629 206,637" fill="#f72585" opacity="0.58"/><polygon points="639,518 654,559 696,551 668,584 696,617 654,610 639,650 624,610 582,617 610,584 582,551 624,559" fill="#480ca8" opacity="0.43"/><polygon points="155,372 172,401 205,401 189,430 205,459 172,459 155,488 139,459 105,459 122,430 105,401 139,401" fill="#b5179e" opacity="0.50"/><polygon points="486,154 495,184 526,183 500,201 511,230 486,211 462,230 472,201 447,183 478,184" fill="#b5179e" opacity="0.48"/><polygon points="263,137 274,158 298,162 281,179 285,202 263,191 242,202 246,179 229,162 253,158" fill="#560bad" opacity="0.72"/><polygon points="173,371 179,387 195,393 179,400 173,416 167,400 151,393 167,387" fill="#7209b7" opacity="0.47"/><polygon points="366,487 384,523 424,530 395,558 401,598 366,580 330,598 336,558 308,530 347,523" fill="#560bad" opacity="0.74"/><polygon points="693,412 712,442 742,461 712,481 693,511 673,481 643,461 673,442" fill="#f72585" opacity="0.64"/><polygon points="258,679 268,696 287,700 274,714 276,734 258,726 240,734 242,714 229,700 248,696" fill="#480ca8" opacity="0.33"/><polygon points="537,648 549,670 573,665 563,688 582,704 558,710 557,735 537,720 517,735 517,710 493,704 512,688 502,665 526,670" fill="#f72585" opacity="0.81"/><polygon points="381,252 394,295 437,309 394,322 381,365 367,322 324,309 367,295" fill="#7209b7" opacity="0.59"/><polygon points="298,485 309,539 361,521 320,558 361,594 309,577 298,631 286,577 234,594 275,558 234,521 286,539" fill="#480ca8" opacity="0.75"/><polygon points="342,602 348,628 374,621 355,640 374,659 348,652 342,678 335,652 309,659 328,640 309,621 335,628" fill="#7209b7" opacity="0.41"/><polygon points="565,697 574,722 599,731 574,740 565,765 557,740 531,731 557,722" fill="#f72585" opacity="0.32"/><circle cx="733.6400035899024" cy="389.40408092665103" r="4.110704454227357" fill="#f72585" opacity="0.8"/><circle cx="227.15999823491987" cy="787.3430320907881" r="2.0971354049759334" fill="#560bad" opacity="0.8"/>
<text x="400" y="780" text-anchor="middle" fill="#334" font-family="monospace" font-size="10">organism:294a7c490107 | stars</text>
</svg>