<svg xmlns="http://www.w3.org/2000/svg" viewBox="0 0 800 800">
<rect width="800" height="800" fill="#0a0e1a"/>
<rect x="72.19201398386973" y="488.5926436999955" width="33.81913366735459" height="33.81913366735459" fill="#b5179e" opacity="0.51" rx="2" transform="rotate(41 89.10158081754702 505.5022105336728)"/><rect x="512.7708428984747" y="457.79126689947054" width="18.766817163573464" height="18.766817163573464" fill="#3f37c9" opacity="0.63" rx="4" transform="rotate(34 522.1542514802615 467.1746754812573)"/><rect x="567.6513012930748" y="183.4327593140874" width="29.021959925155436" height="29.021959925155436" fill="#560bad" opacity="0.36" rx="0" transform="rotate(27 582.1622812556525 197.94373927666513)"/><rect x="85.23560421081088" y="367.61334001885217" width="31.22226199654445" height="31.22226199654445" fill="#560bad" opacity="0.52" rx="3" transform="rotate(16 100.8467352090831 383.2244710171244)"/><rect x="279.7765562056407" y="551.7291772566792" width="25.752259351241612" height="25.752259351241612" fill="#7209b7" opacity="0.42" rx="5" transform="rotate(16 292.6526858812615 564.6053069323001)"/><rect x="745.9646108554422" y="545.928800993244" width="36.21400408084064" height="36.21400408084064" fill="#f72585" opacity="0.87" rx="2" transform="rotate(39 764.0716128958625 564.0358030336643)"/><rect x="71.67199416878175" y="521.0426279085832" width="26.75758489176768" height="26.75758489176768" fill="#b5179e" opacity="0.33" rx="3" transform="rotate(5 85.0507866146656 534.421420354467)"/><rect x="352.64128341087496" y="543.8530438247353" width="23.66393300831814" height="23.66393300831814" fill="#3f37c9" opacity="0.72" rx="6" transform="rotate(9 364.47324991503405 555.6850103288944)"/><rect x="131.47325060149205" y="70.21744816469425" width="26.65295073281475" height="26.65295073281475" fill="#b5179e" opacity="0.45" rx="6" transform="rotate(1 144.79972596789943 83.54392353110163)"/><rect x="178.96574188744285" y="398.10943842910456" width="21.96204629710347" height="21.96204629710347" fill="#7209b7" opacity="0.50" rx="7" transform="rotate(34 189.9467650359946 409.0904615776563)"/><rect x="130.53660160091664" y="239.5870194195802" width="27.04516332901395" height="27.04516332901395" fill="#560bad" opacity="0.63" rx="1" transform="rotate(26 144.05918326542363 253.1096010840872)"/><rect x="391.1417626676965" y="656.0164538311348" width="15.113393742288986" height="15.113393742288986" fill="#7209b7" opacity="0.50" rx="1" transform="rotate(23 398.698459538841 663.5731507022792)"/><rect x="699.1787268364368" y="552.6882737183408" width="28.682597394057005" height="28.682597394057005" fill="#f72585" opacity="0.45" rx="5" transform="rotate(4 713.5200255334653 567.0295724153693)"/><rect x="110.1195267390777" y="581.9533036398207" width="23.439488721956973" height="23.439488721956973" fill="#b5179e" opacity="0.70" rx="3" transform="rotate(40 121.83927110005618 593.6730480007991)"/><rect x="190.0157994279076" y="501.2507843411228" width="19.586677914094903" height="19.586677914094903" fill="#3f37c9" opacity="0.43" rx="6" transform="rotate(34 199.80913838495505 511.0441232981703)"/><rect x="399.35657140019515" y="561.5012300721016" width="31.712836734229843" height="31.712836734229843" fill="#560bad" opacity="0.72" rx="7" transform="rotate(37 415.2129897673101 577.3576484392165)"/><rect x="549.6046518759806" y="286.7571870386953" width="15.643953386858264" height="15.643953386858264" fill="#7209b7" opacity="0.79" rx="5" transform="rotate(24 557.4266285694098 294.5791637321244)"/><rect x="120.8989941449603" y="653.6163479455458" width="26.65067165131405" height="26.65067165131405" fill="#f72585" opacity="0.31" rx="6" transform="rotate(4 134.22432997061733 666.9416837712029)"/><rect x="323.8549657012385" y="541.2485561793528" width="20.850475798422803" height="20.850475798422803" fill="#560bad" opacity="0.38" rx="1" transform="rotate(5 334.2802036004499 551.6737940785642)"/><rect x="249.72477606706747" y="562.839624547061" width="20.436178357088995" height="20.436178357088995" fill="#7209b7" opacity="0.48" rx="0" transform="rotate(13 259.942865245612 573.0577137256055)"/><circle cx="465.16702179268015" cy="572.6801991721966" r="4.337350707593808" fill="#f72585" opacity="0.8"/><circle cx="618.5200890826379" cy="237.95047189566213" r="5.825965160657388" fill="#f72585" opacity="0.8"/><circle cx="423.2084313391991" cy="641.5688950188664" r="2.0887981942984553" fill="#b5179e" opacity="0.8"/>
<text x="400" y="780" text-anchor="middle" fill="#334" font-family="monospace" font-size="10">organism:a5d1f42063b5 | grid</text>
</svg>