<svg xmlns="http://www.w3.org/2000/svg" viewBox="0 0 800 800">
<rect width="800" height="800" fill="#0a0e1a"/>
<polygon points="244,364 260,415 312,402 275,441 312,480 260,468 244,519 229,468 177,480 214,441 177,402 229,415" fill="#ff4d61" opacity="0.54"/><polygon points="117,28 129,68 169,59 141,89 169,119 129,110 117,149 105,110 64,119 92,89 64,59 105,68" fill="#ff4d61" opacity="0.71"/><polygon points="194,396 203,436 240,418 215,451 252,468 211,468 220,508 194,476 169,508 178,468 137,468 174,451 148,418 185,436" fill="#ffbf00" opacity="0.78"/><polygon points="578,253 600,289 643,290 622,327 643,365 600,366 578,402 556,366 513,365 534,327 513,290 556,289" fill="#ff4d61" opacity="0.86"/><polygon points="617,43 634,74 668,68 655,101 681,124 647,134 645,169 617,149 588,169 586,134 552,124 578,101 565,68 599,74" fill="#a855f7" opacity="0.32"/><polygon points="490,245 513,279 552,290 526,322 528,363 490,349 452,363 453,322 428,290 467,279" fill="#ff4d61" opacity="0.43"/><polygon points="87,34 106,93 165,112 106,130 87,190 69,130 9,112 69,93" fill="#a855f7" opacity="0.31"/><polygon points="658,274 668,307 702,318 668,328 658,362 648,328 614,318 648,307" fill="#a855f7" opacity="0.45"/><polygon points="395,215 411,243 443,244 428,272 443,300 411,300 395,328 378,300 346,300 362,272 346,244 378,243" fill="#0cbb76" opacity="0.39"/><polygon points="445,103 457,137 493,138 465,160 475,195 445,174 416,195 426,160 397,138 433,137" fill="#0cbb76" opacity="0.49"/><polygon points="632,395 641,415 662,410 652,430 670,443 648,447 649,469 632,455 615,469 615,447 594,443 611,430 601,410 622,415" fill="#ffbf00" opacity="0.63"/><polygon points="646,390 651,403 665,401 657,412 665,423 651,421 646,434 641,421 627,423 636,412 627,401 641,403" fill="#0cbb76" opacity="0.77"/><polygon points="447,609 460,641 494,636 473,663 494,690 460,686 447,717 434,686 400,690 421,663 400,636 434,641" fill="#a855f7" opacity="0.56"/><polygon points="572,532 591,568 627,587 591,606 572,642 553,606 517,587 553,568" fill="#ffbf00" opacity="0.54"/><polygon points="333,287 352,325 390,344 352,364 333,402 313,364 275,344 313,325" fill="#ffbf00" opacity="0.58"/><circle cx="490.3919944358312" cy="777.3164137624824" r="4.096954290561566" fill="#ff8c00" opacity="0.8"/><circle cx="323.9157860288769" cy="398.18166445489584" r="5.4736102940771945" fill="#ff8c00" opacity="0.8"/><circle cx="460.40768995415834" cy="152.54155833246924" r="4.259664153874239" fill="#0cbb76" opacity="0.8"/>
<text x="400" y="780" text-anchor="middle" fill="#334" font-family="monospace" font-size="10">organism:99e6d7cf858e | stars</text>
</svg>