<svg xmlns="http://www.w3.org/2000/svg" viewBox="0 0 800 800">
<rect width="800" height="800" fill="#0a0e1a"/>
<circle cx="644.6780786746647" cy="74.53769890422876" r="74.93246201828525" fill="#3f37c9" opacity="0.82"/><circle cx="189.09986798272732" cy="717.9565163556562" r="10.109254770439724" fill="none" stroke="#3f37c9" stroke-width="3.0" opacity="0.55"/><circle cx="508.8747477407174" cy="318.7756958136502" r="42.16238159630533" fill="#b5179e" opacity="0.87"/><circle cx="675.9560428653648" cy="133.24542925400362" r="30.930097922948082" fill="#3f37c9" opacity="0.67"/><circle cx="453.4079560595809" cy="432.2629237887134" r="101.43422697726571" fill="#480ca8" opacity="0.37"/><circle cx="490.5008204563674" cy="726.6454292948331" r="113.41986795113571" fill="#480ca8" opacity="0.56"/><circle cx="729.107089879911" cy="116.9112851375232" r="62.24010482882782" fill="#7209b7" opacity="0.67"/><circle cx="167.68373801525365" cy="225.2621991250953" r="40.07656695432389" fill="none" stroke="#3f37c9" stroke-width="1.1" opacity="0.57"/><circle cx="514.2576308188459" cy="266.28585230812166" r="59.81974769591807" fill="#f72585" opacity="0.72"/><circle cx="119.46834807853331" cy="349.29069644511276" r="82.36906108207478" fill="#b5179e" opacity="0.85"/><circle cx="449.8929385596583" cy="539.4548233344314" r="111.40091027328916" fill="#560bad" opacity="0.59"/><circle cx="258.2408628396813" cy="233.20197246164156" r="20.52594181734289" fill="none" stroke="#f72585" stroke-width="3.8" opacity="0.45"/><circle cx="429.0745332791142" cy="543.6020751327937" r="72.13047684252942" fill="none" stroke="#7209b7" stroke-width="1.8" opacity="0.82"/><circle cx="250.67040787874106" cy="582.9694106191714" r="45.18345521062777" fill="#3f37c9" opacity="0.71"/><circle cx="555.180096519175" cy="445.02603554657463" r="57.01981187048436" fill="#560bad" opacity="0.60"/><circle cx="657.4952253980546" cy="68.15676038266795" r="44.37957032556412" fill="#560bad" opacity="0.59"/><circle cx="375.67770044677735" cy="495.17149818578577" r="84.357947340948" fill="#480ca8" opacity="0.87"/><circle cx="443.4114963684206" cy="726.4859705401201" r="57.31127258753567" fill="none" stroke="#480ca8" stroke-width="1.7" opacity="0.40"/><circle cx="113.02503693380771" cy="393.02173102361485" r="107.18118889090819" fill="none" stroke="#3f37c9" stroke-width="2.1" opacity="0.44"/><circle cx="699.231547918372" cy="184.27562730132018" r="5.730811618175633" fill="#3f37c9" opacity="0.8"/><circle cx="278.40583487746517" cy="428.60411105402665" r="5.852932048307773" fill="#f72585" opacity="0.8"/><circle cx="242.2301596836034" cy="664.7535313900242" r="3.753529028984989" fill="#7209b7" opacity="0.8"/>
<text x="400" y="780" text-anchor="middle" fill="#334" font-family="monospace" font-size="10">organism:544365cfa0d5 | circles</text>
</svg>