<svg xmlns="http://www.w3.org/2000/svg" viewBox="0 0 800 800">
<rect width="800" height="800" fill="#0a0e1a"/>
<circle cx="485.65055739681316" cy="592.0373014833355" r="105.17477831322661" fill="#118ab2" opacity="0.30"/><circle cx="281.96643535089186" cy="351.06632292323786" r="110.86541409095585" fill="#073b4c" opacity="0.32"/><circle cx="117.62238247276358" cy="403.83346471902905" r="50.95511142209654" fill="none" stroke="#ef476f" stroke-width="1.2" opacity="0.70"/><circle cx="558.1691731884206" cy="517.3528385866905" r="41.17340796244291" fill="#073b4c" opacity="0.40"/><circle cx="94.26106114159677" cy="74.86112614945742" r="90.10873081508146" fill="#073b4c" opacity="0.87"/><circle cx="344.7799073498594" cy="56.94509824238854" r="82.09760770256356" fill="none" stroke="#ef476f" stroke-width="3.9" opacity="0.48"/><circle cx="233.32973002255548" cy="139.28459719129557" r="93.75770915089511" fill="#06d6a0" opacity="0.60"/><circle cx="653.0759967473912" cy="98.69214982831211" r="88.36502467518194" fill="#06d6a0" opacity="0.65"/><circle cx="112.69105830867818" cy="207.75221309677545" r="111.23458439716353" fill="none" stroke="#06d6a0" stroke-width="3.4" opacity="0.56"/><circle cx="140.24660966513272" cy="234.72638831253013" r="77.40904919222436" fill="none" stroke="#073b4c" stroke-width="2.3" opacity="0.44"/><circle cx="706.4221088070724" cy="727.5121035210651" r="65.51015591583356" fill="#118ab2" opacity="0.41"/><circle cx="674.6990456895301" cy="267.78686795247006" r="80.30873222719306" fill="#118ab2" opacity="0.74"/><circle cx="251.2056261619219" cy="590.5109623382651" r="59.246674706721464" fill="#ffd166" opacity="0.64"/><circle cx="517.7894884528546" cy="311.32312054578523" r="44.90192904630204" fill="#06d6a0" opacity="0.56"/><circle cx="728.9165371558819" cy="155.20159391333914" r="76.34574405679952" fill="none" stroke="#ef476f" stroke-width="2.1" opacity="0.80"/><circle cx="485.98550470030636" cy="700.6289745845789" r="75.37616986901425" fill="none" stroke="#073b4c" stroke-width="1.6" opacity="0.52"/><circle cx="551.7364664324091" cy="371.2956948240971" r="60.697141723289185" fill="#118ab2" opacity="0.73"/><circle cx="725.832056181507" cy="245.62603899584886" r="110.58391081977707" fill="#073b4c" opacity="0.59"/><circle cx="635.0515302820947" cy="547.6087885452594" r="101.35765881379243" fill="#073b4c" opacity="0.52"/><circle cx="422.3252960582672" cy="192.34579368806763" r="101.7335135063542" fill="none" stroke="#ffd166" stroke-width="3.6" opacity="0.48"/><circle cx="237.52496740281538" cy="606.399284676324" r="61.015332595771355" fill="none" stroke="#073b4c" stroke-width="3.4" opacity="0.84"/><circle cx="689.873509938169" cy="562.4613042052682" r="116.05620170487737" fill="#ef476f" opacity="0.83"/><circle cx="546.9017329101322" cy="524.7277679297949" r="115.9383717236375" fill="#ffd166" opacity="0.46"/><circle cx="641.3894928978353" cy="228.36326844126336" r="55.48445623003075" fill="#118ab2" opacity="0.84"/><circle cx="648.4312961008168" cy="102.03563678379331" r="2.492960423852353" fill="#ffd166" opacity="0.8"/><circle cx="649.449941203881" cy="531.4591357890474" r="2.0835954558152565" fill="#073b4c" opacity="0.8"/><circle cx="162.94790985373214" cy="589.6955739505971" r="4.227200519507212" fill="#ef476f" opacity="0.8"/>
<text x="400" y="780" text-anchor="middle" fill="#334" font-family="monospace" font-size="10">organism:902bc06a9473 | circles</text>
</svg>