<svg xmlns="http://www.w3.org/2000/svg" viewBox="0 0 800 800">
<rect width="800" height="800" fill="#0a0e1a"/>
<polygon points="133,318 155,360 202,368 169,402 176,449 133,428 90,449 97,402 64,368 111,360" fill="#1f73ff" opacity="0.50"/><polygon points="719,120 747,169 796,197 747,225 719,274 692,225 643,197 692,169" fill="#ff4d61" opacity="0.65"/><polygon points="436,495 445,510 459,519 445,527 436,542 427,527 412,519 427,510" fill="#ff4d61" opacity="0.75"/><polygon points="542,265 550,300 582,285 560,313 592,328 556,328 564,363 542,335 520,363 528,328 492,328 524,313 502,285 534,300" fill="#ffbf00" opacity="0.40"/><polygon points="51,648 63,677 94,680 70,700 77,731 51,714 24,731 31,700 7,680 38,677" fill="#0cbb76" opacity="0.31"/><polygon points="731,400 755,438 793,462 755,485 731,523 707,485 669,462 707,438" fill="#a855f7" opacity="0.41"/><polygon points="162,-1 171,42 210,22 182,56 222,74 178,73 189,116 162,81 136,116 146,73 102,74 142,56 114,22 153,42" fill="#ff4d61" opacity="0.85"/><polygon points="119,395 138,425 173,426 156,458 173,489 138,490 119,521 100,490 64,489 81,458 64,426 100,425" fill="#1f73ff" opacity="0.30"/><polygon points="533,80 550,112 586,118 561,144 565,181 533,165 500,181 505,144 479,118 515,112" fill="#ffbf00" opacity="0.65"/><polygon points="748,394 765,432 805,421 785,458 819,482 777,489 780,531 748,503 717,531 719,489 678,482 712,458 692,421 732,432" fill="#ff4d61" opacity="0.82"/><polygon points="174,430 187,460 216,473 187,486 174,516 161,486 131,473 161,460" fill="#ffbf00" opacity="0.79"/><polygon points="256,357 267,406 315,391 279,426 315,460 267,445 256,494 245,445 197,460 233,426 197,391 245,406" fill="#a855f7" opacity="0.33"/><polygon points="482,686 492,718 524,706 505,734 535,752 501,754 506,788 482,763 459,788 464,754 430,752 459,734 440,706 472,718" fill="#ff4d61" opacity="0.63"/><polygon points="688,185 703,239 757,225 717,265 757,305 703,291 688,345 673,291 618,305 658,265 618,225 673,239" fill="#ff4d61" opacity="0.64"/><polygon points="726,149 739,204 792,187 751,225 792,263 739,246 726,301 714,246 660,263 702,225 660,187 714,204" fill="#0cbb76" opacity="0.39"/><polygon points="701,493 714,529 750,516 729,549 762,569 724,573 728,611 701,584 674,611 678,573 640,569 673,549 652,516 688,529" fill="#ff4d61" opacity="0.50"/><polygon points="673,215 688,261 733,243 705,283 747,307 699,311 706,359 673,323 640,359 648,311 599,307 641,283 614,243 659,261" fill="#0cbb76" opacity="0.46"/><polygon points="478,325 484,355 511,341 491,364 519,376 488,375 496,404 478,379 460,404 468,375 438,376 466,364 446,341 473,355" fill="#ff8c00" opacity="0.73"/><polygon points="187,235 211,267 244,291 211,315 187,348 163,315 130,291 163,267" fill="#1f73ff" opacity="0.68"/><circle cx="94.06957491460713" cy="448.05120825431385" r="5.832424827358791" fill="#a855f7" opacity="0.8"/><circle cx="300.00806570624405" cy="478.1797487915074" r="3.2136019257527195" fill="#a855f7" opacity="0.8"/>
<text x="400" y="780" text-anchor="middle" fill="#334" font-family="monospace" font-size="10">organism:2d8beceef8e4 | stars</text>
</svg>