<svg xmlns="http://www.w3.org/2000/svg" viewBox="0 0 800 800">
<rect width="800" height="800" fill="#0a0e1a"/>
<polyline points="178,379 186,401 107,435 108,512" fill="none" stroke="#1f73ff" stroke-width="4.6" stroke-linecap="round" stroke-linejoin="round" opacity="0.47"/><polyline points="653,702 692,628 654,579 687,518 708,590 673,512" fill="none" stroke="#0cbb76" stroke-width="3.5" stroke-linecap="round" stroke-linejoin="round" opacity="0.42"/><polyline points="344,52 371,51 314,77 290,124 242,82 177,2" fill="none" stroke="#0cbb76" stroke-width="2.2" stroke-linecap="round" stroke-linejoin="round" opacity="0.88"/><polyline points="152,697 209,673 158,597 107,665 51,720 116,761" fill="none" stroke="#a855f7" stroke-width="5.7" stroke-linecap="round" stroke-linejoin="round" opacity="0.39"/><polyline points="532,465 509,499 517,518 493,550 417,535 397,497" fill="none" stroke="#1f73ff" stroke-width="4.7" stroke-linecap="round" stroke-linejoin="round" opacity="0.79"/><polyline points="92,30 138,71 94,57 117,73 144,119" fill="none" stroke="#ff8c00" stroke-width="3.0" stroke-linecap="round" stroke-linejoin="round" opacity="0.51"/><polyline points="286,382 355,316 366,367 359,302 407,319 404,273" fill="none" stroke="#a855f7" stroke-width="2.0" stroke-linecap="round" stroke-linejoin="round" opacity="0.75"/><polyline points="633,485 708,423 734,455 758,489 796,414" fill="none" stroke="#ffbf00" stroke-width="5.0" stroke-linecap="round" stroke-linejoin="round" opacity="0.80"/><polyline points="202,234 166,287 156,285 189,311" fill="none" stroke="#0cbb76" stroke-width="4.1" stroke-linecap="round" stroke-linejoin="round" opacity="0.42"/><circle cx="738.172235120645" cy="383.6951042420387" r="3.0681933511682615" fill="#ff8c00" opacity="0.8"/><circle cx="726.9020575296267" cy="72.49297658889411" r="5.63774113259527" fill="#ff4d61" opacity="0.8"/><circle cx="139.04251035583349" cy="16.254725564363337" r="3.5209618957792" fill="#ff4d61" opacity="0.8"/><circle cx="602.5444009524126" cy="58.633764898623575" r="3.873367141863088" fill="#ff4d61" opacity="0.8"/>
<text x="400" y="780" text-anchor="middle" fill="#334" font-family="monospace" font-size="10">organism:35c1324a31b7 | squiggles</text>
</svg>