<svg xmlns="http://www.w3.org/2000/svg" viewBox="0 0 800 800">
<rect width="800" height="800" fill="#0a0e1a"/>
<path d="M426,503 L387,543 L333,555 L303,503 L340,462 L394,449 L408,503Z" fill="#ffd166" opacity="0.55"/><path d="M542,59 L529,83 L504,72 L499,43 L534,22 L555,59Z" fill="#06d6a0" opacity="0.86"/><path d="M686,583 L662,655 L596,613 L560,526 L666,499 L682,583Z" fill="#ffd166" opacity="0.51"/><path d="M393,736 L385,798 L321,797 L287,759 L280,709 L323,682 L387,670 L377,736Z" fill="#073b4c" opacity="0.85"/><path d="M344,510 L305,562 L249,578 L200,541 L190,475 L246,432 L300,465 L320,510Z" fill="#118ab2" opacity="0.60"/><path d="M271,636 L264,696 L210,670 L163,636 L207,597 L257,588 L263,636Z" fill="#ef476f" opacity="0.35"/><path d="M513,321 L515,352 L484,371 L463,342 L439,321 L466,303 L484,282 L505,299 L515,321Z" fill="#ffd166" opacity="0.30"/><path d="M668,273 L643,324 L583,362 L511,317 L525,236 L582,181 L651,213 L697,273Z" fill="#06d6a0" opacity="0.89"/><path d="M562,593 L545,686 L473,623 L468,559 L529,548 L616,593Z" fill="#073b4c" opacity="0.34"/><path d="M501,152 L448,191 L409,258 L373,189 L337,152 L342,85 L409,74 L465,96 L470,152Z" fill="#ffd166" opacity="0.70"/><path d="M315,598 L259,663 L194,683 L147,646 L135,598 L137,541 L194,501 L277,515 L281,598Z" fill="#073b4c" opacity="0.38"/><path d="M756,494 L696,564 L626,544 L562,494 L603,404 L680,450 L745,494Z" fill="#ffd166" opacity="0.41"/><path d="M254,579 L232,645 L159,616 L182,559 L226,529 L265,579Z" fill="#ffd166" opacity="0.47"/><path d="M564,111 L541,159 L489,171 L437,143 L450,86 L494,75 L532,74 L543,111Z" fill="#ffd166" opacity="0.88"/><path d="M410,709 L419,790 L339,808 L269,778 L237,709 L267,637 L339,656 L382,665 L410,709Z" fill="#06d6a0" opacity="0.50"/><path d="M257,320 L229,350 L180,349 L192,300 L234,274 L261,320Z" fill="#06d6a0" opacity="0.57"/><path d="M646,671 L608,774 L510,718 L522,633 L608,567 L677,671Z" fill="#ffd166" opacity="0.36"/><path d="M763,682 L738,727 L691,731 L640,712 L648,656 L685,606 L734,642 L782,682Z" fill="#06d6a0" opacity="0.58"/><path d="M450,64 L454,144 L374,126 L327,110 L309,64 L327,17 L374,-10 L451,-14 L469,64Z" fill="#06d6a0" opacity="0.65"/><circle cx="644.7010932189177" cy="350.03519077472845" r="5.2826993099363975" fill="#ef476f" opacity="0.8"/><circle cx="170.07582301948895" cy="201.31664723245368" r="2.6963984269437224" fill="#073b4c" opacity="0.8"/><circle cx="550.8554551920612" cy="758.3246509494162" r="4.989852901013309" fill="#06d6a0" opacity="0.8"/><circle cx="569.8225345533444" cy="500.3821766306269" r="5.9275488501038085" fill="#073b4c" opacity="0.8"/><circle cx="65.53001478141738" cy="404.98364539666954" r="2.7395676266543054" fill="#ffd166" opacity="0.8"/>
<text x="400" y="780" text-anchor="middle" fill="#334" font-family="monospace" font-size="10">organism:41547739d0fd | blobs</text>
</svg>