<svg xmlns="http://www.w3.org/2000/svg" viewBox="0 0 800 800">
<rect width="800" height="800" fill="#0a0e1a"/>
<polygon points="179,114 185,134 205,126 192,144 211,154 190,155 193,177 179,160 165,177 168,155 147,154 166,144 153,126 173,134" fill="#7b2cbf" opacity="0.36"/><polygon points="103,159 117,204 163,193 131,228 163,263 117,252 103,298 89,252 43,263 76,228 43,193 89,204" fill="#e0aaff" opacity="0.60"/><polygon points="664,241 678,283 722,284 687,310 700,352 664,327 628,352 641,310 606,284 650,283" fill="#9d4edd" opacity="0.89"/><polygon points="508,576 519,604 548,599 530,622 548,645 519,640 508,668 498,640 468,645 487,622 468,599 498,604" fill="#c77dff" opacity="0.47"/><polygon points="85,618 107,662 156,670 121,704 129,753 85,730 42,753 49,704 15,670 63,662" fill="#9d4edd" opacity="0.64"/><polygon points="676,188 679,204 694,196 683,209 698,215 682,214 686,230 676,217 667,230 671,214 655,215 670,209 659,196 673,204" fill="#e0aaff" opacity="0.88"/><polygon points="579,400 584,415 601,415 588,425 592,440 579,431 566,440 571,425 558,415 574,415" fill="#c77dff" opacity="0.89"/><polygon points="222,24 229,49 255,43 237,62 255,81 229,75 222,100 214,75 189,81 207,62 189,43 214,49" fill="#c77dff" opacity="0.88"/><polygon points="511,668 525,719 575,733 525,747 511,798 497,747 446,733 497,719" fill="#5a189a" opacity="0.57"/><polygon points="204,377 211,401 234,408 211,414 204,438 197,414 174,408 197,401" fill="#c77dff" opacity="0.41"/><circle cx="209.94240515539246" cy="648.2434194677433" r="4.853899111916146" fill="#9d4edd" opacity="0.8"/><circle cx="400.6345865924535" cy="122.97988532831204" r="3.342197617320698" fill="#7b2cbf" opacity="0.8"/><circle cx="334.36202906905413" cy="426.0803190860208" r="2.56237256779448" fill="#e0aaff" opacity="0.8"/>
<text x="400" y="780" text-anchor="middle" fill="#334" font-family="monospace" font-size="10">organism:4574ee8f5c6c | stars</text>
</svg>