<svg xmlns="http://www.w3.org/2000/svg" viewBox="0 0 800 800">
<rect width="800" height="800" fill="#0a0e1a"/>
<polyline points="12,378 -41,367 -101,359 -61,332" fill="none" stroke="#ff006e" stroke-width="2.7" stroke-linecap="round" stroke-linejoin="round" opacity="0.76"/><polyline points="204,112 160,130 154,166 169,186 215,186" fill="none" stroke="#fb5607" stroke-width="3.7" stroke-linecap="round" stroke-linejoin="round" opacity="0.56"/><polyline points="671,366 706,343 759,292 793,215 787,293 780,319 811,363" fill="none" stroke="#fb5607" stroke-width="4.9" stroke-linecap="round" stroke-linejoin="round" opacity="0.56"/><polyline points="731,582 672,545 678,601 652,665 640,701 647,749 722,778" fill="none" stroke="#ffbe0b" stroke-width="5.7" stroke-linecap="round" stroke-linejoin="round" opacity="0.69"/><polyline points="76,555 150,505 158,445 139,416" fill="none" stroke="#00ffcc" stroke-width="2.3" stroke-linecap="round" stroke-linejoin="round" opacity="0.67"/><polyline points="169,163 221,183 224,217 268,259 278,241 212,197 242,189" fill="none" stroke="#fb5607" stroke-width="4.4" stroke-linecap="round" stroke-linejoin="round" opacity="0.54"/><polyline points="691,36 644,8 597,42 640,24 679,-26 758,-85" fill="none" stroke="#3a86ff" stroke-width="5.8" stroke-linecap="round" stroke-linejoin="round" opacity="0.60"/><polyline points="231,344 266,283 266,288 283,286 224,349" fill="none" stroke="#ffbe0b" stroke-width="4.1" stroke-linecap="round" stroke-linejoin="round" opacity="0.35"/><circle cx="91.96742103322934" cy="523.3181519226499" r="2.932529691061452" fill="#00ffcc" opacity="0.8"/><circle cx="459.0974563256782" cy="222.16837458621717" r="3.8940375685253996" fill="#3a86ff" opacity="0.8"/><circle cx="261.31969904477074" cy="224.47933707141647" r="2.1068153727978167" fill="#ff006e" opacity="0.8"/><circle cx="743.4305149624523" cy="740.2228005245647" r="2.09370518619545" fill="#ffbe0b" opacity="0.8"/>
<text x="400" y="780" text-anchor="middle" fill="#334" font-family="monospace" font-size="10">organism:43979fd10e01 | squiggles</text>
</svg>